<svg width="745" height="579" viewBox="0 0 745 579" fill="none" xmlns="http://www.w3.org/2000/svg">
  <g filter="url(#filter0_bd_0_1)">
    <path d="M49.9908 26.6006L694.485 26.0092C700.011 26.0041 704.494 30.4828 704.494 36.0092L704.494 70.3607C704.494 71.6684 704.237 72.9635 703.739 74.1725L666.28 165.022C665.782 166.231 665.525 167.526 665.525 168.834L665.525 387.858C665.525 389.285 665.831 390.696 666.421 391.995L704.1 474.898C704.693 476.204 704.999 477.621 704.996 479.056L704.924 515.017C704.913 520.533 700.438 524.999 694.921 524.997L49.9967 524.783C44.4751 524.781 40 520.304 40 514.783L40 481.515C40 480.287 40.2261 479.07 40.667 477.924L74.7841 389.253C75.2088 388.15 75.4344 386.979 75.4502 385.797L78.4333 163.557C78.4528 162.113 78.1593 160.682 77.5731 159.363L40.8611 76.7188C40.2934 75.4407 40 74.0577 40 72.6592L40 36.6006C40 31.0813 44.4716 26.6056 49.9908 26.6006Z" fill="black" fill-opacity="0.2" shape-rendering="crispEdges" />
    <path d="M49.9918 27.6006L694.486 27.0092C699.459 27.0046 703.494 31.0354 703.494 36.0092L703.494 70.3607C703.494 71.5376 703.263 72.7032 702.814 73.7913L665.356 164.641C664.807 165.971 664.525 167.395 664.525 168.834L664.525 387.858C664.525 389.428 664.861 390.98 665.511 392.409L703.189 475.312C703.723 476.487 703.998 477.763 703.996 479.054L703.924 515.015C703.915 519.979 699.886 523.998 694.921 523.997L49.997 523.783C45.0276 523.781 41 519.752 41 514.783L41 481.515C41 480.41 41.2035 479.314 41.6003 478.283L75.7174 389.612C76.1846 388.398 76.4327 387.111 76.4502 385.81L79.4333 163.57C79.4546 161.982 79.1318 160.408 78.487 158.957L41.775 76.3129C41.264 75.1626 41 73.9179 41 72.6592L41 36.6006C41 31.6332 45.0245 27.6051 49.9918 27.6006Z" stroke="#294662" stroke-width="2" shape-rendering="crispEdges" />
  </g>
  <path d="M724.5 21L726.5 57.1938L705.931 106.323L685.362 155.451L685.362 388.278L727.101 478.889L727.101 520" stroke="url(#paint0_linear_0_1)" stroke-width="5" />
  <path d="M23.6171 27L21.6046 63.1213L42.3023 112.152L63 161.182L60.4842 392.95L21 483.971L21 525" stroke="url(#paint1_linear_0_1)" stroke-width="5" />
  <defs>
    <filter id="filter0_bd_0_1" x="-1.52588e-05" y="0.00927734" width="744.996" height="578.987" filterUnits="userSpaceOnUse" color-interpolation-filters="sRGB">
      <feFlood flood-opacity="0" result="BackgroundImageFix" />
      <feGaussianBlur in="BackgroundImage" stdDeviation="8" />
      <feComposite in2="SourceAlpha" operator="in" result="effect1_backgroundBlur_0_1" />
      <feColorMatrix in="SourceAlpha" type="matrix" values="0 0 0 0 0 0 0 0 0 0 0 0 0 0 0 0 0 0 127 0" result="hardAlpha" />
      <feOffset dy="14" />
      <feGaussianBlur stdDeviation="20" />
      <feComposite in2="hardAlpha" operator="out" />
      <feColorMatrix type="matrix" values="0 0 0 0 0.254902 0 0 0 0 0.47451 0 0 0 0 0.729412 0 0 0 0.1 0" />
      <feBlend mode="normal" in2="effect1_backgroundBlur_0_1" result="effect2_dropShadow_0_1" />
      <feBlend mode="normal" in="SourceGraphic" in2="effect2_dropShadow_0_1" result="shape" />
    </filter>
    <linearGradient id="paint0_linear_0_1" x1="710" y1="91.0143" x2="724.077" y2="505.028" gradientUnits="userSpaceOnUse">
      <stop stop-color="#294662" />
      <stop offset="1" stop-color="#517495" />
    </linearGradient>
    <linearGradient id="paint1_linear_0_1" x1="38.2077" y1="96.874" x2="24.2737" y2="510.066" gradientUnits="userSpaceOnUse">
      <stop stop-color="#294662" />
      <stop offset="1" stop-color="#517495" />
    </linearGradient>
  </defs>
</svg>
  