<svg width="114" height="129" viewBox="0 0 114 129" fill="none" xmlns="http://www.w3.org/2000/svg">
  <g filter="url(#filter0_d_121_67)">
    <path fill-rule="evenodd" clip-rule="evenodd" d="M49.8134 47.2087C49.5918 47.3488 49.0932 47.8093 48.7052 48.2319C48.0381 48.9588 48 49.0397 48 49.7273V50.4544L54.0092 56.6151L60.0184 62.7759L54.0092 68.9366L48 75.0974V75.8264C48 76.526 48.0312 76.5889 48.7724 77.3849C49.9018 78.598 50.5188 78.843 51.3313 78.4018C51.5308 78.2935 54.9128 74.9023 58.847 70.8657L66 63.5266V62.7759V62.0252L58.847 54.6861C54.9128 50.6495 51.5308 47.2583 51.3313 47.15C50.8384 46.8822 50.2966 46.9033 49.8134 47.2087Z" fill="url(#paint0_linear_121_67)" />
  </g>
  <defs>
    <filter id="filter0_d_121_67" x="0" y="0.963379" width="114" height="127.643" filterUnits="userSpaceOnUse" color-interpolation-filters="sRGB">
      <feFlood flood-opacity="0" result="BackgroundImageFix" />
      <feColorMatrix in="SourceAlpha" type="matrix" values="0 0 0 0 0 0 0 0 0 0 0 0 0 0 0 0 0 0 127 0" result="hardAlpha" />
      <feOffset dy="2" />
      <feGaussianBlur stdDeviation="24" />
      <feComposite in2="hardAlpha" operator="out" />
      <feColorMatrix type="matrix" values="0 0 0 0 0.964706 0 0 0 0 0.141176 0 0 0 0 0.929412 0 0 0 0.7 0" />
      <feBlend mode="normal" in2="BackgroundImageFix" result="effect1_dropShadow_121_67" />
      <feBlend mode="normal" in="SourceGraphic" in2="effect1_dropShadow_121_67" result="shape" />
    </filter>
    <linearGradient id="paint0_linear_121_67" x1="56.46" y1="38.2862" x2="61.9441" y2="86.7774" gradientUnits="userSpaceOnUse">
      <stop stop-color="#F624ED" />
      <stop offset="1" stop-color="white" />
    </linearGradient>
  </defs>
</svg>
  