<svg width="404" height="241" viewBox="0 0 404 241" fill="none" xmlns="http://www.w3.org/2000/svg">
  <path d="M0 65.5H37.6123L106.199 103.5H300.013L367.273 65.5H404" stroke="url(#paint0_linear_0_1)" stroke-width="5" />
  <path d="M0 151.5H37.6123L106.199 113.5H300.013L367.273 151.5H404" stroke="url(#paint1_linear_0_1)" stroke-width="5" />
  <g filter="url(#filter0_bd_0_1)">
    <circle cx="200" cy="106.5" r="80" fill="#791479" fill-opacity="0.3" shape-rendering="crispEdges" />
    <circle cx="200" cy="106.5" r="79" stroke="#6C0F75" stroke-width="2" shape-rendering="crispEdges" />
  </g>
  <g filter="url(#filter1_d_0_1)">
    <path fill-rule="evenodd" clip-rule="evenodd" d="M199.366 63.6858C199.227 63.792 196.866 66.8431 194.118 70.4661C190.431 75.3281 189.123 77.1661 189.123 77.4831C189.123 77.7278 189.292 78.0798 189.516 78.3013C189.882 78.6626 190.024 78.6902 191.519 78.6902H193.129V86.7318V94.7735L191.374 95.128C188.9 95.6278 186.349 96.421 183.707 97.5118L181.432 98.4505V95.0797V91.7087L183.098 91.6547C185.02 91.5925 185.438 91.3811 185.438 90.4703C185.438 90.0253 184.655 88.9107 180.409 83.311C177.644 79.6633 175.258 76.6324 175.109 76.5756C174.571 76.3715 174.115 76.48 173.712 76.9081C172.79 77.8878 163.824 89.8892 163.728 90.2715C163.65 90.5807 163.724 90.8002 164.022 91.1427C164.407 91.5861 164.474 91.6024 166.117 91.6547L167.813 91.7087V94.2013C167.813 96.6019 167.827 96.7066 168.184 97.0383C168.912 97.7147 169.94 97.2848 170.142 96.219C170.198 95.9267 170.219 94.3963 170.19 92.8179C170.126 89.3831 170.146 89.4238 168.438 89.3037L167.311 89.2245L170.949 84.4283C172.95 81.7903 174.614 79.6581 174.646 79.6899C174.678 79.7218 176.322 81.88 178.299 84.4861L181.894 89.2245L180.788 89.2709C179.818 89.3117 179.642 89.3677 179.355 89.728C179.043 90.1205 179.029 90.348 179.029 94.9333V99.7281L177.467 100.68C175.413 101.932 173.913 102.985 171.882 104.6L170.216 105.925V103.882C170.216 102.758 170.141 101.644 170.05 101.406C169.715 100.536 168.959 100.316 168.235 100.879L167.813 101.208V104.697V108.186L166.324 109.715C163.017 113.111 159.002 118.431 159 119.419C158.999 119.888 161.205 123.148 163.114 125.501C164.985 127.806 168.727 131.586 171.018 133.486C178.394 139.603 186.069 143.078 194.891 144.293C196.891 144.569 203.145 144.569 205.145 144.293C212.606 143.265 219.388 140.551 225.717 136.061C229.287 133.528 234.059 129.03 236.921 125.501C238.792 123.193 240.856 120.171 240.98 119.557C241.067 119.126 240.908 118.813 239.708 117.055C237.963 114.497 235.985 112.065 233.881 109.887L232.223 108.17V104.689V101.208L231.801 100.879C231.077 100.316 230.321 100.536 229.986 101.406C229.895 101.644 229.82 102.761 229.82 103.888V105.937L228.178 104.614C226.503 103.264 223.809 101.392 222.009 100.328L221.007 99.7359V94.9371C221.007 90.348 220.993 90.1207 220.681 89.728C220.394 89.3677 220.219 89.3117 219.248 89.2709L218.142 89.2245L221.737 84.4861C223.714 81.88 225.358 79.7218 225.391 79.6899C225.423 79.6581 227.086 81.7903 229.087 84.4283L232.725 89.2245L231.598 89.3037C229.89 89.4238 229.91 89.3831 229.847 92.8179C229.817 94.3963 229.839 95.9267 229.894 96.219C230.098 97.2962 231.191 97.7358 231.875 97.0161C232.202 96.6721 232.223 96.4975 232.223 94.1791V91.7087L233.92 91.6547C235.562 91.6024 235.629 91.5861 236.014 91.1427C236.312 90.8002 236.386 90.5807 236.309 90.2715C236.213 89.8892 227.246 77.8878 226.324 76.9081C225.922 76.4807 225.466 76.3715 224.93 76.5746C224.782 76.6308 222.397 79.6597 219.63 83.3052C215.359 88.9321 214.599 90.0139 214.599 90.4654C214.599 91.3816 215.013 91.5923 216.938 91.6547L218.604 91.7087V95.0883V98.4678L217.202 97.8671C214.656 96.776 212.627 96.0877 210.119 95.464C208.758 95.1252 207.478 94.8481 207.275 94.8481H206.908V91.2767V87.7052L206.514 87.3165C206.01 86.8175 205.315 86.8081 204.853 87.2941C204.518 87.6466 204.504 87.7903 204.504 90.9772V94.2937H200.018H195.532V85.6482V77.003L195.161 76.6584C194.863 76.3815 194.596 76.314 193.799 76.314C193.254 76.314 192.808 76.2778 192.808 76.2336C192.808 76.0778 199.899 66.8094 200.018 66.8094C200.137 66.8094 207.228 76.0778 207.228 76.2336C207.228 76.2778 206.772 76.314 206.215 76.314C205.362 76.314 205.146 76.3723 204.853 76.6806C204.521 77.0294 204.504 77.188 204.504 79.9385C204.504 81.6735 204.572 82.9553 204.674 83.1438C205.086 83.9035 206.356 83.8321 206.727 83.0283C206.83 82.8037 206.908 81.7916 206.908 80.6629V78.6902H208.517C210.013 78.6902 210.155 78.6626 210.52 78.3013C210.744 78.0798 210.913 77.7278 210.913 77.4831C210.913 77.1661 209.605 75.3281 205.918 70.4661C203.171 66.8431 200.809 63.792 200.671 63.6858C200.347 63.4381 199.689 63.4381 199.366 63.6858ZM205.626 96.9818C212.904 98.0724 219.542 101.005 226.162 106.054C228.502 107.84 232.994 112.27 235.061 114.831C236.8 116.986 238.312 119.117 238.312 119.412C238.312 119.69 236.397 122.345 234.752 124.347C232.842 126.673 228.766 130.692 226.535 132.449C211.604 144.213 193.589 145.406 178.067 135.66C173.423 132.743 168.954 128.78 165.24 124.284C163.648 122.356 161.725 119.691 161.725 119.412C161.725 119.111 163.253 116.965 164.981 114.839C170.086 108.557 176.491 103.45 183.101 100.392C187.464 98.3723 191.381 97.3257 196.974 96.6839C198.207 96.5425 204.032 96.7429 205.626 96.9818ZM198.416 102.301C194.423 102.657 190.642 104.421 187.754 107.277C178.895 116.036 182.052 130.871 193.737 135.388C196.103 136.303 196.806 136.421 199.938 136.426C203.097 136.431 204.106 136.267 206.427 135.366C212.46 133.024 216.828 127.199 217.301 120.867C217.691 115.637 215.939 110.893 212.282 107.277C209.535 104.561 205.715 102.707 202.176 102.372C200.259 102.191 199.753 102.182 198.416 102.301ZM202.662 104.844C207.789 105.694 212.422 109.574 214.134 114.451C214.949 116.772 215.18 120.054 214.691 122.355C213.744 126.805 210.763 130.624 206.668 132.633C202.513 134.671 197.523 134.671 193.368 132.633C189.267 130.621 186.301 126.826 185.348 122.371C185.033 120.9 185.03 117.913 185.342 116.471C186.088 113.023 187.964 109.978 190.624 107.899C194.151 105.142 198.226 104.108 202.662 104.844ZM201.882 111.334C201.486 111.643 201.46 111.744 201.46 112.998V114.333H199.285H197.109L196.641 114.796C196.212 115.22 196.173 115.352 196.173 116.38V117.501H194.274C192.262 117.501 191.458 117.668 191.202 118.141C191.111 118.31 191.046 120.282 191.046 122.884V127.337L191.439 127.726L191.832 128.114H200.018H208.204L208.597 127.726L208.991 127.337V119.56V111.784L208.597 111.395C208.208 111.01 208.173 111.006 205.254 111.006C202.513 111.006 202.275 111.029 201.882 111.334ZM175.096 113.454C174.88 113.668 174.703 114.028 174.703 114.253C174.703 114.479 174.88 114.839 175.096 115.053C175.473 115.425 175.576 115.442 177.552 115.442C179.5 115.442 179.633 115.421 179.962 115.075C180.424 114.589 180.406 113.938 179.917 113.454C179.541 113.082 179.435 113.065 177.507 113.065C175.578 113.065 175.472 113.082 175.096 113.454ZM220.119 113.454C219.614 113.953 219.605 114.64 220.096 115.097C220.437 115.414 220.633 115.442 222.507 115.442C224.459 115.442 224.564 115.425 224.94 115.053C225.156 114.839 225.334 114.479 225.334 114.253C225.334 114.028 225.156 113.668 224.94 113.454C224.564 113.082 224.458 113.065 222.53 113.065C220.601 113.065 220.495 113.082 220.119 113.454ZM206.587 119.56V125.738H205.225H203.864V119.56V113.382H205.225H206.587V119.56ZM201.46 121.224V125.738H200.018H198.576V121.224V116.709H200.018H201.46V121.224ZM171.723 118.361C170.951 118.693 170.757 119.619 171.338 120.194C171.64 120.493 171.872 120.511 175.424 120.511C178.975 120.511 179.207 120.493 179.509 120.194C180.119 119.591 179.856 118.602 179.008 118.31C178.246 118.047 172.356 118.088 171.723 118.361ZM220.911 118.361C220.14 118.693 219.945 119.619 220.527 120.194C220.829 120.493 221.061 120.511 224.613 120.511C228.164 120.511 228.396 120.493 228.698 120.194C229.308 119.591 229.045 118.602 228.197 118.31C227.434 118.047 221.545 118.088 220.911 118.361ZM196.173 122.808V125.738H194.811H193.449V122.808V119.877H194.811H196.173V122.808ZM175.035 123.78C174.621 124.3 174.612 124.8 175.009 125.285C175.297 125.638 175.433 125.662 177.407 125.711C179.464 125.762 179.505 125.757 179.905 125.362C180.422 124.851 180.437 124.168 179.94 123.706C179.598 123.389 179.405 123.362 177.468 123.362C175.389 123.362 175.363 123.367 175.035 123.78ZM220.074 123.729C219.607 124.22 219.63 124.866 220.132 125.362C220.531 125.757 220.572 125.762 222.63 125.711C224.604 125.662 224.739 125.638 225.028 125.285C225.424 124.8 225.415 124.3 225.001 123.78C224.673 123.366 224.649 123.362 222.546 123.362C220.533 123.362 220.404 123.381 220.074 123.729Z" fill="url(#paint2_linear_0_1)" />
  </g>
  <defs>
    <filter id="filter0_bd_0_1" x="80" y="0.5" width="240" height="240" filterUnits="userSpaceOnUse" color-interpolation-filters="sRGB">
      <feFlood flood-opacity="0" result="BackgroundImageFix" />
      <feGaussianBlur in="BackgroundImage" stdDeviation="8" />
      <feComposite in2="SourceAlpha" operator="in" result="effect1_backgroundBlur_0_1" />
      <feColorMatrix in="SourceAlpha" type="matrix" values="0 0 0 0 0 0 0 0 0 0 0 0 0 0 0 0 0 0 127 0" result="hardAlpha" />
      <feOffset dy="14" />
      <feGaussianBlur stdDeviation="20" />
      <feComposite in2="hardAlpha" operator="out" />
      <feColorMatrix type="matrix" values="0 0 0 0 0.160784 0 0 0 0 0.27451 0 0 0 0 0.384314 0 0 0 0.31 0" />
      <feBlend mode="normal" in2="effect1_backgroundBlur_0_1" result="effect2_dropShadow_0_1" />
      <feBlend mode="normal" in="SourceGraphic" in2="effect2_dropShadow_0_1" result="shape" />
    </filter>
    <filter id="filter1_d_0_1" x="139" y="53.5" width="122" height="121" filterUnits="userSpaceOnUse" color-interpolation-filters="sRGB">
      <feFlood flood-opacity="0" result="BackgroundImageFix" />
      <feColorMatrix in="SourceAlpha" type="matrix" values="0 0 0 0 0 0 0 0 0 0 0 0 0 0 0 0 0 0 127 0" result="hardAlpha" />
      <feOffset dy="10" />
      <feGaussianBlur stdDeviation="10" />
      <feComposite in2="hardAlpha" operator="out" />
      <feColorMatrix type="matrix" values="0 0 0 0 0.656789 0 0 0 0 0.126163 0 0 0 0 0.704167 0 0 0 1 0" />
      <feBlend mode="normal" in2="BackgroundImageFix" result="effect1_dropShadow_0_1" />
      <feBlend mode="normal" in="SourceGraphic" in2="effect1_dropShadow_0_1" result="shape" />
    </filter>
    <linearGradient id="paint0_linear_0_1" x1="6.8766" y1="57.3837" x2="449.094" y2="49.5976" gradientUnits="userSpaceOnUse">
      <stop stop-color="#755B91" />
      <stop offset="0.451195" stop-color="#332047" />
      <stop offset="1" stop-color="#755B91" />
    </linearGradient>
    <linearGradient id="paint1_linear_0_1" x1="6.8766" y1="159.616" x2="449.094" y2="167.402" gradientUnits="userSpaceOnUse">
      <stop stop-color="#755B91" />
      <stop offset="0.451195" stop-color="#332047" />
      <stop offset="1" stop-color="#755B91" />
    </linearGradient>
    <linearGradient id="paint2_linear_0_1" x1="200" y1="63.5" x2="200" y2="157.5" gradientUnits="userSpaceOnUse">
      <stop stop-color="#F46DF3" />
      <stop offset="1" stop-color="#8C028B" />
    </linearGradient>
  </defs>
</svg>
  