<svg width="404" height="241" viewBox="0 0 404 241" fill="none" xmlns="http://www.w3.org/2000/svg">
  <path d="M0 65.5H37.6123L106.199 103.5H300.013L367.273 65.5H404" stroke="url(#paint0_linear_0_1)" stroke-width="5" />
  <path d="M0 151.5H37.6123L106.199 113.5H300.013L367.273 151.5H404" stroke="url(#paint1_linear_0_1)" stroke-width="5" />
  <g filter="url(#filter0_bd_0_1)">
    <circle cx="200" cy="106.5" r="80" fill="#070716" fill-opacity="0.4" shape-rendering="crispEdges" />
    <circle cx="200" cy="106.5" r="79" stroke="#294662" stroke-width="2" shape-rendering="crispEdges" />
  </g>
  <g filter="url(#filter1_d_0_1)">
    <path fill-rule="evenodd" clip-rule="evenodd" d="M226.446 67.9792C222.649 71.7715 221.934 72.557 221.784 73.102C221.656 73.5706 221.651 74.3412 221.769 75.9356C221.857 77.1401 221.93 78.1792 221.931 78.2447C221.932 78.3102 221.387 77.929 220.721 77.3975C212.509 70.8454 201.111 68.17 190.564 70.3188C183.154 71.8283 176.474 75.5336 171.205 81.0567C158.736 94.128 157.556 114.377 168.423 128.827C169.87 130.751 170.956 131.857 171.399 131.857C171.98 131.857 172.336 131.604 172.528 131.054C172.735 130.459 172.631 130.266 171.157 128.494C165.552 121.759 162.635 112.297 163.466 103.544C164.982 87.5905 176.693 75.0229 192.549 72.3329C194.583 71.9878 199.398 71.8572 201.459 72.091C208.781 72.9221 215.384 75.767 220.656 80.3622L221.646 81.2249L219.016 83.8595C217.571 85.3086 216.351 86.4938 216.308 86.4933C216.264 86.493 215.665 86.0313 214.977 85.4672C211.711 82.7883 207.606 80.8529 203.177 79.9029C201.768 79.6006 201.051 79.5497 198.098 79.5421C195.107 79.5344 194.428 79.5801 192.888 79.8925C184.418 81.61 177.468 86.9085 173.663 94.5499C168.496 104.925 170.568 117.528 178.792 125.759C186.145 133.118 197.024 135.624 206.836 132.22C212.803 130.15 217.998 125.89 221.345 120.323C222.711 118.052 224.116 114.425 224.515 112.143C224.647 111.385 224.151 110.74 223.436 110.74C222.649 110.74 222.428 111.021 222.021 112.538C221.451 114.666 220.894 116.122 219.956 117.935C215.148 127.23 205.056 132.513 194.703 131.155C181.212 129.385 171.601 116.861 173.394 103.384C174.794 92.8624 182.566 84.4868 192.993 82.2621C194.967 81.841 198.837 81.6893 200.932 81.9508C205.709 82.5474 210.646 84.7209 214.04 87.7219L214.633 88.2457L211.992 90.881L209.351 93.5162L208.335 92.7343C206.959 91.675 204.216 90.3485 202.318 89.8236C200.872 89.4241 200.544 89.3922 197.941 89.3983C195.406 89.4044 194.978 89.4457 193.611 89.8159C187.481 91.4763 182.851 96.1717 181.18 102.423C180.821 103.768 180.776 104.229 180.776 106.594C180.776 108.975 180.819 109.417 181.191 110.818C182.106 114.268 184.36 117.788 187.046 119.962C188.778 121.364 191.58 122.79 193.722 123.359C195.121 123.731 195.563 123.774 197.941 123.774C200.299 123.774 200.767 123.729 202.095 123.373C204.208 122.807 205.735 122.134 207.422 121.024C210.96 118.696 213.601 115.035 214.703 110.928C215.068 109.568 215.112 109.117 215.121 106.594C215.131 103.982 215.101 103.666 214.699 102.215C214.173 100.313 212.848 97.5687 211.79 96.1923L211.009 95.1756L213.642 92.5325L216.275 89.8893L216.798 90.4793C218.55 92.4537 220.551 95.9757 221.444 98.6561C222.105 100.638 222.562 102.991 222.668 104.952C222.717 105.855 222.851 106.782 222.967 107.012C223.259 107.592 224.02 107.747 224.569 107.338C224.943 107.059 224.984 106.921 225.026 105.8C225.078 104.42 224.732 101.753 224.255 99.8683C223.334 96.2255 221.433 92.4534 219.051 89.5444C218.487 88.8561 218.026 88.257 218.026 88.213C218.025 88.1691 219.209 86.9495 220.657 85.5027L223.288 82.8723L224.01 83.6757C226.676 86.6437 229.257 91.052 230.606 94.9409C235.318 108.531 231.368 123.469 220.604 132.757C215.59 137.084 209.604 139.839 202.943 140.886C200.846 141.216 195.315 141.253 193.409 140.95C187.088 139.947 181.904 137.811 177.08 134.224C175.655 133.165 175.23 133.065 174.647 133.648C173.756 134.539 174.279 135.227 177.467 137.36C180.846 139.621 184.774 141.361 188.884 142.418C192.137 143.255 194.184 143.498 198.02 143.5C202.796 143.503 206.597 142.85 210.682 141.324C227.773 134.941 237.64 117.497 234.277 99.6122C233.207 93.9234 230.51 88.0177 226.974 83.6214L226.11 82.5476L227.186 82.6388C230.687 82.9358 230.945 82.9344 231.649 82.6142C232.129 82.3957 233.585 81.0386 236.663 77.9412C240.507 74.0721 241 73.5203 241 73.0818C241 72.8098 240.919 72.4089 240.82 72.191C240.478 71.4409 240.005 71.2844 237.526 71.1012L235.209 70.9301L236.698 69.4472C238.031 68.1193 238.187 67.905 238.187 67.3988C238.187 66.696 237.799 66.3156 237.083 66.3156C236.619 66.3156 236.356 66.5099 235.025 67.8378L233.498 69.3599L233.49 68.659C233.469 66.7908 233.213 64.6261 232.969 64.2541C232.657 63.7773 232.09 63.5 231.426 63.5C230.987 63.5 230.429 64.0013 226.446 67.9792ZM231.214 69.5223L231.322 71.5558L227.799 75.074C225.352 77.5187 224.277 78.4972 224.276 78.2807C224.276 78.1092 224.204 77.0215 224.115 75.8633L223.955 73.7574L227.436 70.2708C230.512 67.1906 230.928 66.8251 231.011 67.1364C231.063 67.3302 231.154 68.4038 231.214 69.5223ZM237.152 73.4572L237.759 73.5455L234.261 77.0562L230.763 80.5668L229.747 80.483C229.188 80.4368 228.108 80.3536 227.346 80.2981L225.96 80.1972L229.456 76.6886L232.951 73.1801L234.748 73.2745C235.737 73.3265 236.819 73.4087 237.152 73.4572ZM201.692 92.0845C203.271 92.5286 204.63 93.1189 205.904 93.9139C207.944 95.1865 208.018 94.8635 205 97.8875L202.386 100.507L201.15 99.8927C200.043 99.3419 199.762 99.2703 198.437 99.2008C197.229 99.1376 196.763 99.1831 195.881 99.4514C193.27 100.245 191.362 102.246 190.754 104.83C190.143 107.423 190.853 109.931 192.731 111.81C196.733 115.816 203.424 114.107 205.079 108.656C205.347 107.774 205.392 107.308 205.329 106.098C205.26 104.773 205.188 104.491 204.638 103.383L204.024 102.146L206.641 99.5299C209.255 96.9175 209.259 96.9139 209.588 97.2111C210.089 97.665 211.239 99.5894 211.748 100.824C212.634 102.973 212.789 103.857 212.779 106.673C212.771 109.016 212.731 109.38 212.349 110.628C211.024 114.952 208.19 118.271 204.247 120.116C199.529 122.324 193.971 121.891 189.658 118.979C183.569 114.869 181.334 106.914 184.414 100.319C186.467 95.925 190.165 92.9985 195.068 91.8884C196.505 91.5628 200.23 91.6731 201.692 92.0845ZM199.633 101.76C200.035 101.897 200.407 102.079 200.46 102.165C200.512 102.25 199.704 103.182 198.662 104.237C196.588 106.336 196.432 106.662 197.153 107.384C197.874 108.105 198.199 107.949 200.297 105.873C201.351 104.831 202.283 104.022 202.37 104.076C202.728 104.297 203.054 105.759 202.995 106.88C202.894 108.801 201.838 110.358 200.076 111.185C198.878 111.747 197.074 111.77 195.91 111.238C194.888 110.772 193.751 109.64 193.302 108.642C192.789 107.501 192.798 105.486 193.321 104.483C194.067 103.053 194.956 102.229 196.28 101.742C197.066 101.452 198.757 101.461 199.633 101.76Z" fill="url(#paint2_linear_0_1)" />
  </g>
  <defs>
    <filter id="filter0_bd_0_1" x="80" y="0.5" width="240" height="240" filterUnits="userSpaceOnUse" color-interpolation-filters="sRGB">
      <feFlood flood-opacity="0" result="BackgroundImageFix" />
      <feGaussianBlur in="BackgroundImage" stdDeviation="8" />
      <feComposite in2="SourceAlpha" operator="in" result="effect1_backgroundBlur_0_1" />
      <feColorMatrix in="SourceAlpha" type="matrix" values="0 0 0 0 0 0 0 0 0 0 0 0 0 0 0 0 0 0 127 0" result="hardAlpha" />
      <feOffset dy="14" />
      <feGaussianBlur stdDeviation="20" />
      <feComposite in2="hardAlpha" operator="out" />
      <feColorMatrix type="matrix" values="0 0 0 0 0.160784 0 0 0 0 0.27451 0 0 0 0 0.384314 0 0 0 0.31 0" />
      <feBlend mode="normal" in2="effect1_backgroundBlur_0_1" result="effect2_dropShadow_0_1" />
      <feBlend mode="normal" in="SourceGraphic" in2="effect2_dropShadow_0_1" result="shape" />
    </filter>
    <filter id="filter1_d_0_1" x="141" y="49.5" width="120" height="120" filterUnits="userSpaceOnUse" color-interpolation-filters="sRGB">
      <feFlood flood-opacity="0" result="BackgroundImageFix" />
      <feColorMatrix in="SourceAlpha" type="matrix" values="0 0 0 0 0 0 0 0 0 0 0 0 0 0 0 0 0 0 127 0" result="hardAlpha" />
      <feOffset dy="6" />
      <feGaussianBlur stdDeviation="10" />
      <feComposite in2="hardAlpha" operator="out" />
      <feColorMatrix type="matrix" values="0 0 0 0 0.498681 0 0 0 0 0.60935 0 0 0 0 0.716667 0 0 0 0.7 0" />
      <feBlend mode="normal" in2="BackgroundImageFix" result="effect1_dropShadow_0_1" />
      <feBlend mode="normal" in="SourceGraphic" in2="effect1_dropShadow_0_1" result="shape" />
    </filter>
    <linearGradient id="paint0_linear_0_1" x1="56.6849" y1="81.0689" x2="391.959" y2="70.9311" gradientUnits="userSpaceOnUse">
      <stop stop-color="#294662" />
      <stop offset="1" stop-color="#517495" />
    </linearGradient>
    <linearGradient id="paint1_linear_0_1" x1="56.6849" y1="135.931" x2="391.959" y2="146.069" gradientUnits="userSpaceOnUse">
      <stop stop-color="#294662" />
      <stop offset="1" stop-color="#517495" />
    </linearGradient>
    <linearGradient id="paint2_linear_0_1" x1="201" y1="63.5" x2="201" y2="143.5" gradientUnits="userSpaceOnUse">
      <stop stop-color="#0868C5" />
      <stop offset="1" stop-color="#496A8A" />
    </linearGradient>
  </defs>
</svg>
  