<svg width="404" height="241" viewBox="0 0 404 241" fill="none" xmlns="http://www.w3.org/2000/svg">
  <path d="M0 65.5H37.6123L106.199 103.5H300.013L367.273 65.5H404" stroke="url(#paint0_linear_0_1)" stroke-width="5" />
  <path d="M0 151.5H37.6123L106.199 113.5H300.013L367.273 151.5H404" stroke="url(#paint1_linear_0_1)" stroke-width="5" />
  <g filter="url(#filter0_bd_0_1)">
    <circle cx="200" cy="106.5" r="80" fill="#070716" fill-opacity="0.4" shape-rendering="crispEdges" />
    <circle cx="200" cy="106.5" r="79" stroke="#BE0A39" stroke-opacity="0.4" stroke-width="2" shape-rendering="crispEdges" />
  </g>
  <g filter="url(#filter1_d_0_1)">
    <path fill-rule="evenodd" clip-rule="evenodd" d="M207.665 63.69C207.162 63.8507 206.651 64.1872 206.153 64.6857C204.958 65.8819 204.909 66.1825 204.909 72.2377V77.3775L205.292 77.7613C205.784 78.2539 206.462 78.2632 206.913 77.7833C207.247 77.4269 207.252 77.3429 207.252 72.3017C207.252 66.6566 207.277 66.4972 208.211 66.0133C209.15 65.5277 210.379 66.1502 210.592 67.2193C210.646 67.4869 210.689 75.5794 210.689 85.2026V102.699H208.971H207.252V92.1356V81.5717L206.869 81.1879C206.38 80.6986 205.781 80.6986 205.292 81.1879L204.909 81.5717V87.4255V93.2791L201.823 93.3566C198.249 93.4466 197.32 93.6485 194.993 94.841C193.677 95.5155 193.341 95.8027 190.056 99.054L186.53 102.543H181.481H176.432L175.808 101.978C174.616 100.9 174.103 100.77 170.736 100.696C169.085 100.659 167.482 100.677 167.173 100.735C166.071 100.942 165.63 101.981 166.356 102.661C166.686 102.97 166.906 102.993 169.989 103.04C173.654 103.096 173.993 103.184 174.717 104.26L175.072 104.787L175.03 116.322C174.989 127.695 174.984 127.862 174.666 128.288C173.878 129.345 173.815 129.36 170.058 129.415L166.635 129.465L166.32 129.866C165.924 130.37 165.919 130.866 166.303 131.342C166.602 131.71 166.609 131.711 170.17 131.711C173.573 131.711 173.776 131.694 174.543 131.346C174.986 131.146 175.508 130.812 175.703 130.603L176.058 130.225H181.079H186.099L188.512 131.809C193.284 134.942 194.883 135.382 201.51 135.385L204.909 135.386V139.044C204.909 143.111 204.944 143.263 205.953 143.458C206.354 143.535 206.528 143.476 206.851 143.152L207.252 142.751V139.068V135.386H208.971H210.689V139.128V142.87L211.101 143.195C211.637 143.616 211.979 143.604 212.517 143.141L212.955 142.764L213.002 139.075L213.049 135.386H215.129C218.4 135.386 219.656 135.017 220.87 133.699C221.818 132.669 222.167 131.777 222.167 130.381C222.167 129.036 221.776 127.977 220.97 127.144L220.487 126.644L220.994 126.065C221.831 125.111 222.147 124.219 222.153 122.796C222.158 121.752 222.09 121.402 221.739 120.676C221.508 120.197 221.145 119.642 220.931 119.441L220.542 119.076L221.01 118.485C221.841 117.435 222.167 116.512 222.167 115.211C222.167 113.876 221.842 112.988 221.008 112.036L220.5 111.458L221.008 110.879C221.85 109.918 222.16 109.047 222.163 107.626C222.165 106.495 222.113 106.278 221.627 105.374C220.986 104.182 219.932 103.281 218.775 102.937C218.207 102.768 217.261 102.699 215.505 102.699H213.033V98.8677V95.036H218.176H223.319L223.371 97.7412C223.429 100.732 223.511 101.016 224.486 101.612C224.954 101.897 225.305 101.916 230.003 101.917C234.843 101.917 235.036 101.906 235.433 101.593C236.002 101.145 236.002 100.344 235.433 99.8957C235.042 99.5882 234.828 99.5715 231.286 99.5715H227.551L230.117 97.2108C231.528 95.9124 232.779 94.6632 232.896 94.4348C233.068 94.1012 233.119 92.2878 233.155 85.2222L233.2 76.4249H238.44C242.759 76.4249 243.67 76.462 243.629 76.636C243.601 76.7521 242.736 79.352 241.706 82.4134L239.834 87.9799L241.705 93.5801C242.734 96.6603 243.6 99.2685 243.628 99.376C243.667 99.5257 243.161 99.5715 241.473 99.5715C239.34 99.5715 239.255 99.584 238.884 99.9554C238.392 100.448 238.395 101.045 238.894 101.544C239.288 101.938 239.29 101.938 241.852 101.889C244.635 101.835 244.846 101.773 245.578 100.792C246.254 99.8852 246.167 99.4415 244.161 93.5344L242.296 88.045L244.148 82.5218C245.167 79.4842 246 76.797 246 76.5505C246 75.8323 245.61 75.0932 244.974 74.6079L244.384 74.1572L238.805 74.1124L233.225 74.0679L233.163 71.6048C233.093 68.8517 232.946 68.3808 231.946 67.7063C231.431 67.3588 231.354 67.3539 226.375 67.3539C221.382 67.3539 221.322 67.3577 221.007 67.6963C220.388 68.3619 220.704 69.2787 221.647 69.5494C221.935 69.6322 224.087 69.6999 226.43 69.6999H230.688V81.195V92.6901H221.861H213.033V81.195V69.6999H214.885C216.846 69.6999 217.63 69.5346 217.88 69.0682C218.098 68.6598 218.069 68.0887 217.811 67.7357C217.615 67.4659 217.335 67.4234 215.29 67.3539L212.989 67.2757L212.798 66.5207C212.235 64.297 209.861 62.9881 207.665 63.69ZM227.17 96.4478L225.767 97.8594L225.721 96.657C225.695 95.9957 225.711 95.3605 225.755 95.2453C225.813 95.0925 226.205 95.036 227.204 95.036H228.573L227.17 96.4478ZM204.909 99.1805V102.699H203.389H201.87L200.915 101.751C199.835 100.68 199.219 100.506 198.622 101.103C198 101.725 198.175 102.283 199.375 103.507C199.969 104.114 200.682 104.708 200.958 104.828C201.367 105.005 202.998 105.045 209.644 105.045H217.827L218.508 105.406C219.276 105.812 219.908 106.81 219.908 107.617C219.908 108.256 219.316 109.403 218.787 109.789C218.557 109.956 217.995 110.152 217.537 110.223C216.592 110.371 216.158 110.765 216.158 111.475C216.158 111.978 216.636 112.552 217.056 112.553C217.765 112.555 218.621 112.943 219.155 113.504C220.625 115.046 219.7 117.523 217.547 117.809C216.568 117.939 216.158 118.3 216.158 119.031C216.158 119.686 216.742 120.214 217.468 120.218C218.252 120.222 219.159 120.83 219.556 121.618C219.981 122.461 219.995 123.057 219.61 123.907C219.24 124.722 218.561 125.205 217.565 125.363C216.583 125.518 216.158 125.884 216.158 126.574C216.158 127.298 216.574 127.655 217.571 127.787C218.271 127.88 218.511 128.004 219.065 128.558C219.508 129.002 219.761 129.414 219.836 129.815C220.08 131.117 219.184 132.531 217.895 132.879C217.416 133.008 214.315 133.043 206.811 133.003C196.738 132.95 196.354 132.937 195.2 132.614C193.62 132.172 192.299 131.489 189.725 129.783C186.563 127.688 187.335 127.879 182.027 127.879H177.41V116.384V104.889H182.433H187.456L191.222 101.161C194.628 97.7887 195.102 97.3763 196.194 96.8385C198.076 95.911 199.251 95.6865 202.292 95.6732L204.909 95.6616V99.1805Z" fill="url(#paint2_linear_0_1)" />
  </g>
  <defs>
    <filter id="filter0_bd_0_1" x="80" y="0.5" width="240" height="240" filterUnits="userSpaceOnUse" color-interpolation-filters="sRGB">
      <feFlood flood-opacity="0" result="BackgroundImageFix" />
      <feGaussianBlur in="BackgroundImage" stdDeviation="8" />
      <feComposite in2="SourceAlpha" operator="in" result="effect1_backgroundBlur_0_1" />
      <feColorMatrix in="SourceAlpha" type="matrix" values="0 0 0 0 0 0 0 0 0 0 0 0 0 0 0 0 0 0 127 0" result="hardAlpha" />
      <feOffset dy="14" />
      <feGaussianBlur stdDeviation="20" />
      <feComposite in2="hardAlpha" operator="out" />
      <feColorMatrix type="matrix" values="0 0 0 0 0.160784 0 0 0 0 0.27451 0 0 0 0 0.384314 0 0 0 0.31 0" />
      <feBlend mode="normal" in2="effect1_backgroundBlur_0_1" result="effect2_dropShadow_0_1" />
      <feBlend mode="normal" in="SourceGraphic" in2="effect2_dropShadow_0_1" result="shape" />
    </filter>
    <filter id="filter1_d_0_1" x="153" y="54.5" width="106" height="106" filterUnits="userSpaceOnUse" color-interpolation-filters="sRGB">
      <feFlood flood-opacity="0" result="BackgroundImageFix" />
      <feColorMatrix in="SourceAlpha" type="matrix" values="0 0 0 0 0 0 0 0 0 0 0 0 0 0 0 0 0 0 127 0" result="hardAlpha" />
      <feOffset dy="4" />
      <feGaussianBlur stdDeviation="6.5" />
      <feComposite in2="hardAlpha" operator="out" />
      <feColorMatrix type="matrix" values="0 0 0 0 0.979167 0 0 0 0 0.195833 0 0 0 0 0.380147 0 0 0 0.7 0" />
      <feBlend mode="normal" in2="BackgroundImageFix" result="effect1_dropShadow_0_1" />
      <feBlend mode="normal" in="SourceGraphic" in2="effect1_dropShadow_0_1" result="shape" />
    </filter>
    <linearGradient id="paint0_linear_0_1" x1="-37.4697" y1="65.5916" x2="391.979" y2="72.6885" gradientUnits="userSpaceOnUse">
      <stop stop-color="#36091A" />
      <stop offset="0.453125" stop-color="#782035" />
      <stop offset="1" stop-color="#36091A" />
    </linearGradient>
    <linearGradient id="paint1_linear_0_1" x1="-37.4697" y1="151.408" x2="391.979" y2="144.312" gradientUnits="userSpaceOnUse">
      <stop stop-color="#36091A" />
      <stop offset="0.453125" stop-color="#782035" />
      <stop offset="1" stop-color="#36091A" />
    </linearGradient>
    <linearGradient id="paint2_linear_0_1" x1="206" y1="63.5" x2="206" y2="143.5" gradientUnits="userSpaceOnUse">
      <stop stop-color="#DD4D81" />
      <stop offset="1" stop-color="#CA1A3E" />
    </linearGradient>
  </defs>
</svg>
  