<svg width="11" height="8" viewBox="0 0 11 8" fill="none" xmlns="http://www.w3.org/2000/svg">
  <path d="M5.48858 0.506645C7.18941 0.506645 8.89025 0.506645 10.5911 0.506645C10.641 0.506645 10.6984 0.488669 10.7391 0.511849C10.8229 0.559626 10.9195 0.610715 10.9706 0.694918C11.0356 0.8023 10.983 0.920561 10.9079 1.01233C10.6857 1.28386 10.4638 1.55586 10.2411 1.82692C8.74259 3.65383 7.24369 5.48074 5.74518 7.30717C5.53368 7.56498 5.44229 7.56451 5.22879 7.30433C3.53195 5.23617 1.8355 3.16754 0.138662 1.0989C0.107534 1.06058 0.0608433 1.02794 0.0484721 0.982531C0.0225326 0.887921 -0.0181724 0.770605 0.0089643 0.69208C0.036101 0.613081 0.133075 0.558207 0.208499 0.515633C0.253594 0.490088 0.316247 0.506645 0.371319 0.506645C2.07694 0.506645 3.78296 0.506645 5.48858 0.506645Z" fill="white" />
</svg>
  