<svg width="140" height="136" viewBox="0 0 140 136" fill="none" xmlns="http://www.w3.org/2000/svg">
  <g filter="url(#filter0_d_1_225)">
    <path fill-rule="evenodd" clip-rule="evenodd" d="M27.6826 10.2762C24.4021 11.0645 21.6967 13.8361 20.999 17.1231C20.7187 18.4437 20.7004 35.2602 20.9775 36.7323C21.5713 39.8848 24.5732 43.0537 27.4707 43.5864L28.2031 43.7211V46.77C28.2031 49.5617 28.2373 49.8623 28.608 50.3292C28.91 50.7099 29.1895 50.8392 29.7094 50.8392C30.3506 50.8392 30.6873 50.5628 33.9561 47.3536L37.5063 43.868L47.6203 43.9181L57.7346 43.9682L58.0904 44.8977C58.8445 46.8662 60.5844 48.4972 62.5904 49.116C63.6318 49.4371 64.417 49.4843 68.7215 49.4843C73.4201 49.4843 73.683 49.465 74.1729 49.0831C74.8455 48.5588 74.8744 47.5969 74.2355 47.0019C73.7961 46.5929 73.6463 46.5811 68.858 46.5811C64.8473 46.5811 63.798 46.5254 63.2066 46.2806C62.3586 45.9295 61.4881 45.1572 61.0908 44.4037L60.8104 43.8715H61.8484C66.0367 43.8715 69.8158 40.7321 70.5703 36.6262C70.6891 35.9792 70.7812 33.0849 70.7812 29.9973V24.5168H83.7389H96.6963L97.5572 24.9672C98.0307 25.2147 98.6816 25.7884 99.0039 26.2417L99.5898 27.0658L99.6457 35.1299C99.7086 44.2011 99.7014 44.2572 98.3227 45.4915C97.5695 46.1658 96.5275 46.578 95.5711 46.58C95.2945 46.5805 94.877 46.7828 94.6434 47.029C94.2639 47.4294 94.2188 47.6898 94.2188 49.4814V51.4858L91.6984 49.0334L89.1781 46.5811H84.3613C81.6514 46.5811 79.3912 46.6626 79.1936 46.7673C79.0006 46.8697 78.7357 47.2092 78.6051 47.5216C78.4098 47.989 78.4211 48.192 78.6688 48.6668C78.8344 48.9842 79.1121 49.2979 79.2861 49.3641C79.46 49.4301 81.4598 49.4843 83.7299 49.4843H87.8576L91.392 52.9682C94.4383 55.9711 95.0094 56.452 95.5275 56.452C95.858 56.452 96.3361 56.2858 96.5897 56.0825C97.0352 55.7252 97.0529 55.6058 97.1123 52.5395L97.1738 49.3661L98.4168 48.8294C99.8721 48.2011 101.429 46.6945 102.091 45.2749C102.512 44.3708 102.52 44.2067 102.52 35.549V26.7426L102.005 25.6548C101.308 24.1823 100.326 23.1554 98.8609 22.3682L97.6367 21.7104L84.209 21.6568L70.7812 21.6033V19.9897C70.7812 17.7974 70.5162 16.5438 69.7068 14.9082C68.542 12.5546 66.2045 10.7606 63.5939 10.2166C62.0412 9.89298 29.0494 9.94775 27.6826 10.2762ZM64.3674 13.5388C65.6404 14.1584 66.7373 15.2736 67.3365 16.5578C67.7449 17.433 67.7539 17.6573 67.7539 26.9361V36.4199L67.2887 37.4399C66.6635 38.8106 65.0312 40.2829 63.7035 40.6737C62.851 40.9245 60.766 40.9683 49.6393 40.9683C40.4639 40.9683 36.4488 41.0321 36.1492 41.1829C35.9146 41.3008 34.69 42.41 33.4277 43.6475L31.1328 45.8977V43.9382C31.1328 41.4481 30.9576 41.1798 29.1719 40.9379C26.9393 40.6354 25.377 39.5612 24.3428 37.6174L23.8086 36.6135V27.1297C23.8086 18.2658 23.833 17.5834 24.1809 16.6896C24.5969 15.6204 25.8223 14.1957 26.7281 13.7275C28.2926 12.9193 28.1691 12.9241 46.0742 12.9632L63.2617 13.0008L64.3674 13.5388ZM31.1471 18.4462C30.4887 19.2755 30.6404 20.0966 31.5375 20.5562C32.0068 20.7968 34.1447 20.8394 45.7623 20.8394C55.3666 20.8394 59.5764 20.7755 59.9107 20.6246C60.375 20.4148 60.8203 19.723 60.8203 19.2113C60.8203 19.071 60.6381 18.7266 60.4154 18.4462L60.0107 17.9362H45.7812H31.5518L31.1471 18.4462ZM31.2254 25.9558C30.6109 26.5649 30.6094 27.306 31.2217 27.9126L31.701 28.3877H45.7812H59.8615L60.3627 27.8911C60.7686 27.4889 60.8404 27.2775 60.74 26.7807C60.4828 25.5054 61.4471 25.5865 45.8668 25.5292L31.7086 25.4772L31.2254 25.9558ZM31.1471 33.7364C30.9244 34.0168 30.7422 34.4523 30.7422 34.7041C30.7422 35.2403 31.3262 35.8799 31.958 36.0359C32.2023 36.0963 35.5354 36.1203 39.3645 36.0891C45.8922 36.0363 46.3523 36.0098 46.7375 35.6641C47.2738 35.183 47.2842 34.1351 46.7578 33.6135C46.3809 33.2399 46.1068 33.2264 38.9596 33.2264H31.5518L31.1471 33.7364ZM26.4357 53.0305C24.6814 53.5146 23.2537 54.7413 22.4646 56.4421C22.0924 57.2448 22.05 57.747 21.9873 62.0987C21.9072 67.6595 22.0756 69.1586 22.9885 71.0056L23.6287 72.3012L22.7246 72.9699C22.2275 73.3376 21.541 74.0572 21.199 74.5688C20.0867 76.2327 20 76.8414 20 82.977C20 88.3003 20.0166 88.5496 20.4049 89.0385C20.6984 89.4084 20.9896 89.5485 21.4648 89.5485C21.94 89.5485 22.2313 89.4084 22.5248 89.0385C22.9127 88.55 22.9297 88.2994 22.9297 83.0606V77.5928L23.4668 76.5755C23.8635 75.8241 24.2357 75.4299 24.8906 75.0679L25.7771 74.5779L27.1719 75.2692C29.0238 76.1874 30.9266 76.5098 32.7414 76.2128C33.966 76.0124 35.9977 75.2172 36.8352 74.6102C37.6113 74.0479 38.3482 74.7755 42.3998 80.1042C44.5281 82.9035 46.5465 85.4769 46.8848 85.8227L47.5 86.4518H53.0957C59.1607 86.4518 59.3813 86.4855 60.2172 87.5385C60.7838 88.2523 60.7838 89.877 60.2172 90.5908C59.365 91.6642 59.2635 91.6775 51.9336 91.6775C46.2527 91.6775 45.084 91.6303 44.5986 91.3816C44.2418 91.1989 42.6854 89.3238 40.5244 86.4736C38.6012 83.937 36.8807 81.8057 36.701 81.7374C36.077 81.5001 35.4953 81.6156 35.073 82.061C34.2801 82.8977 34.4697 83.3241 37.2852 87.0324L39.9219 90.5054V96.8011V103.097H31.4258H22.9297V98.6667C22.9297 94.6266 22.8975 94.1971 22.5643 93.7893C22.0564 93.1678 20.8732 93.1678 20.3654 93.7893C20.0279 94.2024 20 94.6491 20 99.6432V105.05L20.4795 105.525L20.9588 106H70H119.041L119.521 105.525L120 105.05V99.6432C120 94.6491 119.972 94.2024 119.635 93.7893C119.127 93.1678 117.944 93.1678 117.436 93.7893C117.103 94.1971 117.07 94.6266 117.07 98.6667V103.097H108.574H100.078V96.8075V90.5184L102.715 87.0253C105.548 83.2718 105.746 82.8214 104.9 82.0339C104.448 81.6139 103.9 81.5088 103.317 81.7304C103.148 81.7948 101.424 83.9281 99.4855 86.4709C97.3547 89.2671 95.7371 91.2097 95.393 91.3861C94.9184 91.6292 93.7041 91.6775 88.0664 91.6775C80.7365 91.6775 80.635 91.6642 79.7828 90.5908C79.2162 89.877 79.2162 88.2523 79.7828 87.5385C80.6188 86.4855 80.8393 86.4518 86.9043 86.4518H92.5L93.1152 85.8227C93.4535 85.4767 95.4676 82.9091 97.5906 80.1168C100.082 76.8402 101.663 74.9309 102.049 74.7329C102.632 74.4344 102.691 74.4474 104.244 75.2061C107.236 76.6688 109.965 76.6889 112.828 75.2692L114.223 74.5779L115.109 75.0679C115.764 75.4299 116.137 75.8241 116.533 76.5755L117.07 77.5928V83.0606C117.07 88.2994 117.087 88.55 117.475 89.0385C118.035 89.7438 119.035 89.7438 119.595 89.0385C119.983 88.5496 120 88.3003 120 82.977C120 76.8414 119.913 76.2327 118.801 74.5688C118.459 74.0572 117.772 73.3376 117.275 72.9699L116.371 72.3012L117.012 71.0056C117.923 69.1611 118.092 67.659 118.015 62.0987C117.949 57.3286 117.949 57.3216 117.406 56.2273C116.781 54.9658 115.656 53.8788 114.36 53.285C113.515 52.8981 113.148 52.8714 108.672 52.8714C105.184 52.8714 103.687 52.9413 103.152 53.1292C102.007 53.5306 100.625 54.7324 99.9805 55.8865L99.3945 56.9359L99.3346 62.5135C99.2707 68.4633 99.3646 69.41 100.182 71.0648L100.66 72.0325L99.8715 72.6854C99.4377 73.0444 97.3252 75.6356 95.1772 78.4434L91.2715 83.5486H88.3506H85.4297L85.4285 80.2099C85.4279 78.3735 85.3404 76.5602 85.2338 76.1802C84.7496 74.4526 82.6555 72.4231 80.1031 71.2072C78.7203 70.5484 78.5939 70.4412 78.6838 70.0003C79.1006 67.9549 79.1939 65.9455 79.141 60.1608L79.082 53.7085L78.5205 53.23L77.959 52.7514L71.3916 52.8114C65.609 52.8642 64.7326 52.9124 64.058 53.2142C62.7496 53.7996 61.6709 54.8266 61.0305 56.0969L60.4297 57.2879V62.8294C60.4297 67.1817 60.4939 68.6149 60.7289 69.5089C61.0254 70.6367 60.9463 70.9545 60.3662 70.9651C60.2775 70.9667 59.6102 71.3182 58.8834 71.7461C57.259 72.7024 55.9676 73.9059 55.2283 75.1525C54.6715 76.091 54.6676 76.1206 54.6043 79.8228L54.5404 83.5486H51.6346H48.7285L44.8229 78.4434C42.6748 75.6356 40.5623 73.0444 40.1285 72.6854L39.3396 72.0325L39.8178 71.0648C40.6354 69.41 40.7293 68.4633 40.6654 62.5135L40.6055 56.9359L40.0262 55.8992C39.3828 54.7484 38.5096 53.9493 37.1875 53.3018C36.3654 52.8993 36.0176 52.8687 31.8164 52.8282C28.6664 52.798 27.0588 52.8584 26.4357 53.0305ZM36.2084 56.1181C37.3506 56.7166 37.7734 57.5483 37.7734 59.1955C37.7734 59.9095 37.6908 60.5442 37.59 60.6061C37.2096 60.839 35.7697 60.4418 34.7168 59.8135C32.701 58.6105 32.0111 59.0006 31.5943 61.5797C31.1426 64.3756 30.1311 65.8594 28.3521 66.3363C27.482 66.5697 25.324 66.4505 25.0234 66.1526C24.9303 66.0603 24.8824 64.1664 24.9172 61.9441C24.9902 57.2787 25.1072 56.8821 26.6377 56.1133C27.4514 55.7045 27.7461 55.6778 31.4365 55.6778C35.1502 55.6778 35.4148 55.7022 36.2084 56.1181ZM76.208 57.7585L76.2637 59.7423H69.8115H63.3594V58.8199C63.3594 57.5713 63.8879 56.6612 64.9303 56.1151C65.759 55.6807 65.8834 55.6728 70.9645 55.7231L76.1523 55.7746L76.208 57.7585ZM113.367 56.1133C114.004 56.4315 114.357 56.7814 114.678 57.4124C115.09 58.223 115.117 58.5158 115.117 62.1913C115.117 64.3499 115.037 66.1557 114.938 66.2159C114.526 66.4684 112.427 66.5451 111.648 66.3363C109.869 65.8594 108.857 64.3756 108.406 61.5797C107.989 59.0006 107.299 58.6105 105.283 59.8135C104.143 60.4937 102.687 60.8568 102.368 60.5405C102.266 60.4393 102.215 59.7173 102.255 58.9364C102.34 57.2819 102.688 56.6701 103.887 56.0696C104.594 55.7154 105.041 55.6782 108.582 55.678C112.252 55.6778 112.55 55.7049 113.367 56.1133ZM76.1998 65.5003C76.0746 69.1319 75.8309 69.8648 74.2146 71.4691C72.8029 72.8702 71.567 73.38 69.6094 73.369C67.0689 73.3545 64.6562 71.6785 63.7605 69.3062C63.4238 68.4144 63.3594 67.7944 63.3594 65.4446V62.6455H69.8289H76.2984L76.1998 65.5003ZM36.3547 63.4445C36.9223 63.5486 37.4738 63.5803 37.5801 63.5153C37.7037 63.4396 37.7734 64.2709 37.7734 65.8203C37.7734 67.7832 37.698 68.4438 37.3764 69.2958C36.4889 71.6464 34.0363 73.3616 31.5492 73.3711C29.915 73.3775 28.5025 72.9043 27.4236 71.989C26.5424 71.2417 25.4688 69.8942 25.4688 69.5358C25.4688 69.3982 26.0387 69.3227 27.0801 69.3225C29.1686 69.3223 30.4754 68.8547 31.8422 67.6191C32.9074 66.656 33.9477 64.9003 34.1799 63.6738C34.2949 63.0667 34.3553 63.0148 34.8146 63.1292C35.0939 63.1987 35.7869 63.3405 36.3547 63.4445ZM105.823 63.6885C106.053 64.9013 107.097 66.6604 108.158 67.6191C109.525 68.8547 110.831 69.3223 112.92 69.3225C113.961 69.3227 114.531 69.3982 114.531 69.5358C114.531 69.8942 113.458 71.2417 112.576 71.989C111.497 72.9043 110.085 73.3775 108.451 73.3711C105.964 73.3616 103.511 71.6464 102.624 69.2958C102.303 68.4463 102.227 67.783 102.227 65.8499C102.227 63.6696 102.257 63.4629 102.568 63.5329C102.756 63.5753 103.438 63.4915 104.082 63.3465C105.735 62.9747 105.686 62.9653 105.823 63.6885ZM63.6236 73.9984C65.6211 75.7893 68.5229 76.6366 71.1525 76.1971C72.8418 75.9147 74.841 74.9642 76.0305 73.8776C76.5006 73.4483 77.0082 73.097 77.1584 73.097C77.7055 73.097 80.2096 74.4927 81.0656 75.2746C82.4475 76.5368 82.5 76.7216 82.5 80.3185V83.4948L81.3629 83.597C79.3764 83.7754 77.6686 85.0186 76.8334 86.8942C76.3361 88.0104 76.2807 89.9447 76.716 90.9775L77.0113 91.6775H70H62.9887L63.284 90.9775C63.7193 89.9447 63.6639 88.0104 63.1666 86.8942C62.3314 85.0186 60.6236 83.7754 58.6371 83.597L57.5 83.4948V80.3185C57.5 76.7802 57.5543 76.576 58.8174 75.3646C59.4064 74.7995 62.1588 73.1309 62.5494 73.1021C62.5873 73.0994 63.0707 73.5025 63.6236 73.9984ZM97.1484 98.8388V103.097H70H42.8516V98.8388V94.5807H70H97.1484V98.8388Z" fill="url(#paint0_linear_1_225)" />
  </g>
  <defs>
    <filter id="filter0_d_1_225" x="0" y="0" width="140" height="136" filterUnits="userSpaceOnUse" color-interpolation-filters="sRGB">
      <feFlood flood-opacity="0" result="BackgroundImageFix" />
      <feColorMatrix in="SourceAlpha" type="matrix" values="0 0 0 0 0 0 0 0 0 0 0 0 0 0 0 0 0 0 127 0" result="hardAlpha" />
      <feOffset dy="10" />
      <feGaussianBlur stdDeviation="10" />
      <feComposite in2="hardAlpha" operator="out" />
      <feColorMatrix type="matrix" values="0 0 0 0 0.811765 0 0 0 0 0.156863 0 0 0 0 0.317647 0 0 0 0.5 0" />
      <feBlend mode="normal" in2="BackgroundImageFix" result="effect1_dropShadow_1_225" />
      <feBlend mode="normal" in="SourceGraphic" in2="effect1_dropShadow_1_225" result="shape" />
    </filter>
    <linearGradient id="paint0_linear_1_225" x1="70" y1="10" x2="70" y2="106" gradientUnits="userSpaceOnUse">
      <stop stop-color="#DD4D81" />
      <stop offset="1" stop-color="#CA1A3E" />
    </linearGradient>
  </defs>
</svg>
  