<svg width="133" height="143" viewBox="0 0 133 143" fill="none" xmlns="http://www.w3.org/2000/svg">
  <g filter="url(#filter0_d_1_228)">
    <path fill-rule="evenodd" clip-rule="evenodd" d="M64.325 10.2287C62.8001 10.6461 61.6089 11.3527 60.0609 12.7576C58.3686 14.2935 57.3983 14.7707 55.7313 14.8871C54.7365 14.9565 54.0775 14.8697 52.9468 14.5205C50.0944 13.6393 47.2798 14.0253 44.9891 15.6112C43.3182 16.7682 42.3456 18.0345 41.2554 20.4719C39.8172 23.6873 38.58 24.8469 36.0358 25.3638C32.4816 26.0858 30.3039 27.5383 28.7366 30.2322C27.7713 31.8911 27.4255 33.4436 27.4255 36.1174C27.4255 39.8986 26.7338 41.5499 24.3567 43.444C21.3583 45.8332 20 48.5129 20 52.0393C20 53.7836 20.3418 55.0693 21.4595 57.5285C22.2796 59.3332 22.3205 59.5044 22.3205 61.1341C22.3205 62.7638 22.2796 62.935 21.4595 64.7397C20.3418 67.1988 20 68.4845 20 70.2288C20 73.7616 21.4227 76.5448 24.4352 78.9055C26.7236 80.6988 27.4255 82.3995 27.4255 86.1507C27.4255 88.8245 27.7713 90.377 28.7366 92.0359C30.352 94.8122 32.0957 95.9427 36.4288 97.0222C38.8042 97.614 40.1332 98.9587 41.3404 101.991C41.8817 103.352 42.873 104.869 43.7607 105.697C46.2646 108.031 49.6109 108.778 52.9468 107.748C54.0775 107.398 54.7365 107.312 55.7313 107.381C57.3983 107.497 58.3686 107.975 60.0609 109.511C62.4196 111.651 64.5461 112.476 67.1697 112.267C69.4361 112.086 71.2069 111.241 73.0859 109.443C75.2229 107.398 77.4407 106.864 80.1477 107.742C82.7787 108.596 85.841 108.217 87.9492 106.776C89.873 105.46 91.0323 103.919 91.9454 101.461C92.9347 98.7989 94.8596 97.2168 97.6888 96.7406C100.258 96.3081 102.894 94.4712 104.259 92.1623C105.3 90.4016 105.632 88.9333 105.665 85.9355C105.692 83.4516 105.735 83.1374 106.208 82.0119C106.751 80.7172 107.618 79.6876 109.291 78.3513C110.531 77.3608 111.905 75.4545 112.463 73.9488C112.76 73.1466 112.899 72.2681 112.96 70.8106C113.059 68.4307 112.802 67.2472 111.684 64.9371C110.312 62.1049 110.316 60.1258 111.696 57.2944C112.703 55.2291 113.005 53.9706 113 51.8471C112.993 48.5921 111.711 45.8828 109.212 43.8442C107.418 42.3808 106.8 41.6385 106.202 40.2328C105.731 39.1274 105.689 38.8197 105.663 36.3326C105.64 34.1157 105.561 33.3998 105.221 32.3324C104.064 28.6996 101.441 26.3352 97.6567 25.515C96.7063 25.309 95.5219 24.9185 95.0251 24.6471C93.7843 23.9699 92.5463 22.424 91.9421 20.7979C91.0323 18.3495 89.8708 16.8061 87.9492 15.4924C85.841 14.0511 82.7787 13.6717 80.1477 14.5257C77.4407 15.4044 75.2229 14.8703 73.0859 12.8254C71.8549 11.6475 71.024 11.0951 69.6577 10.5463C68.2233 9.97005 65.7967 9.82564 64.325 10.2287ZM69.3156 13.7899C69.8423 14.0811 70.7612 14.7839 71.3576 15.352C73.183 17.0899 75.6436 18.1315 77.9236 18.1315C78.409 18.1315 79.6099 17.9065 80.5923 17.6315C82.6452 17.0569 83.6018 17.0115 84.9011 17.4271C86.9752 18.0907 88.3534 19.5994 89.4204 22.3742C90.6399 25.545 93.5813 28.0161 96.7607 28.5407C99.3462 28.9676 101.113 30.2718 102.169 32.5324C102.645 33.55 102.692 33.8723 102.804 36.8326C102.94 40.4316 103.082 40.9903 104.407 43.1706C104.971 44.0981 105.64 44.8483 106.586 45.6161C109.29 47.8085 110.123 49.3506 110.119 52.1561C110.117 53.587 110.059 53.804 109.156 55.7563C107.976 58.3097 107.808 58.9781 107.808 61.1341C107.808 63.29 107.976 63.9584 109.156 66.5118C110.059 68.4641 110.117 68.6811 110.119 70.112C110.123 72.916 109.265 74.5047 106.599 76.629C105.651 77.3844 105.017 78.0959 104.427 79.0655C103.081 81.2786 102.941 81.8277 102.802 85.4355C102.687 88.4195 102.643 88.7139 102.146 89.7938C101.156 91.9443 99.2786 93.3158 96.7607 93.7288C93.5837 94.2496 90.6464 96.7072 89.4345 99.8575C88.1325 103.243 86.3934 104.798 83.613 105.064C82.7299 105.148 82.0464 105.054 80.6365 104.655C79.6298 104.37 78.409 104.137 77.9236 104.137C75.6436 104.137 73.183 105.178 71.3576 106.916C69.7294 108.466 68.6533 108.988 66.8732 109.09C64.9552 109.201 63.6587 108.703 62.0626 107.244C59.7585 105.138 58.2615 104.408 55.8273 104.202C54.6826 104.106 54.0975 104.179 52.5445 104.611C50.2602 105.246 49.5619 105.262 47.9221 104.717C46.2107 104.147 44.6275 102.484 43.8873 100.479C43.2123 98.6501 42.5925 97.6366 41.3831 96.3847C40.0621 95.0171 38.5261 94.2208 36.2632 93.7304C33.3252 93.0935 31.8211 91.9455 30.8 89.5597C30.3619 88.5363 30.316 88.1851 30.2863 85.6355C30.2494 82.4711 30.0435 81.5121 28.9974 79.6352C28.1587 78.1299 27.631 77.525 26.1737 76.3982C23.8562 74.6059 22.9371 72.8262 22.9501 70.1562C22.9566 68.7779 23.0307 68.5047 23.9787 66.3528C25.8063 62.2049 25.8063 60.0632 23.9787 55.9154C23.0307 53.7634 22.9566 53.4902 22.9501 52.1119C22.9371 49.4336 23.8596 47.6545 26.1908 45.8622C28.0568 44.4275 29.0839 42.9608 29.8762 40.5993C30.1974 39.642 30.2722 38.9306 30.2932 36.6326C30.3167 34.0711 30.3598 33.7386 30.7983 32.7324C31.8594 30.297 33.3218 29.1752 36.2664 28.5375C38.494 28.0551 40.0909 27.2211 41.4178 25.8474C42.5931 24.6307 43.2168 23.6057 43.8873 21.7889C44.6275 19.7838 46.2107 18.1209 47.9221 17.5515C49.5223 17.0189 50.3857 17.0227 52.1188 17.5699C53.1554 17.8971 53.978 18.0057 55.3637 17.9981C58.1069 17.9833 59.5675 17.3401 61.9848 15.0825C62.5635 14.5423 63.5241 13.8789 64.1197 13.6085C65.6237 12.9258 67.8966 13.005 69.3156 13.7899ZM63.5223 23.1378C56.8032 23.7339 49.7187 26.7642 44.5075 31.2717C43.069 32.516 40.2034 35.5834 39.0346 37.1298C34.0144 43.7726 31.1382 52.5162 31.1382 61.1341C31.1382 75.6453 39.011 89.1779 51.0941 95.4357C67.1177 103.734 86.1846 98.1062 96.0467 82.1663C102.944 71.0184 103.796 56.318 98.2428 44.2859C92.6653 32.2022 81.8895 24.3057 69.3793 23.135C67.0288 22.915 66.0285 22.9156 63.5223 23.1378ZM70.6229 26.4412C75.8803 27.1837 80.2936 28.9698 84.6204 32.1062C101.717 44.4993 103.94 70.5434 89.2286 86.0891C84.4769 91.1102 78.4261 94.4394 71.7948 95.6813C69.2729 96.1537 63.6095 96.1399 61.1185 95.6555C56.118 94.6828 51.6079 92.6379 47.4742 89.4685C45.3745 87.8586 41.5483 83.6936 40.0027 81.3353C37.5348 77.5694 35.5517 72.5847 34.6315 67.8345C34.26 65.9171 34.2053 65.0557 34.2053 61.1341C34.2053 57.2124 34.26 56.351 34.6315 54.4337C36.7374 43.5642 43.1851 34.5065 52.2079 29.7424C57.9424 26.7144 64.382 25.5602 70.6229 26.4412ZM66.4 31.9937C65.3332 32.3176 64.4623 32.8984 63.5872 33.8699C62.6928 34.8629 62.1718 36.1682 61.9665 37.9305C61.7676 39.6366 60.9902 41.4945 59.3375 44.2143L58.1715 46.1332H51.5484C45.129 46.1332 44.9104 46.146 44.4362 46.5478L43.9471 46.9622V63.3488C43.9471 79.3981 43.9547 79.7434 44.3137 80.1302C44.5153 80.3474 44.8703 80.5756 45.1027 80.6374C45.3349 80.6992 53.7951 80.724 63.903 80.6926L82.281 80.6352L83.1349 80.1818C84.2272 79.602 85.2165 78.5337 85.7112 77.3998C86.1994 76.2806 86.2462 74.3304 85.8113 73.2194L85.504 72.4347L86.0234 72.0347C88.3296 70.2582 89.0541 67.4544 87.8757 64.8687L87.3444 63.7028L87.8193 63.1686C88.5754 62.3179 89.1306 60.7788 89.1304 59.534C89.1304 58.1379 88.8176 57.1512 88.0172 56.0212L87.3832 55.1263L87.8824 54.08C88.9396 51.8637 88.4122 49.111 86.6127 47.4513C85.2772 46.2196 84.7168 46.1332 78.0704 46.1332C74.8218 46.1332 72.1638 46.0724 72.1638 45.9982C72.1638 45.924 72.3703 45.2187 72.6227 44.4309C74.4796 38.6343 73.6718 34.2423 70.4363 32.5424C69.0806 31.8301 67.6013 31.6289 66.4 31.9937ZM69.2081 35.3873C70.2932 36.1752 70.6787 37.004 70.6787 38.5493C70.6787 40.3988 70.2982 42.2035 69.2965 45.1039C68.8315 46.4504 68.4511 47.6899 68.4511 47.8581C68.4511 48.0263 68.6952 48.4271 68.9937 48.7487L69.5363 49.3334H76.7069C84.5751 49.3334 84.6824 49.3484 85.248 50.5268C86.0144 52.1235 85.1805 53.624 83.3143 54.0074C82.3967 54.1959 82.0026 54.6595 82.0026 55.5501C82.0026 56.561 82.656 57.1338 83.809 57.1338C84.8287 57.1338 85.6197 57.6129 85.9908 58.4553C86.3453 59.2606 86.3465 59.7992 85.9949 60.5318C85.6123 61.3289 85.013 61.7341 84.2167 61.7341C83.3128 61.7341 82.4067 62.0943 82.1843 62.5419C81.6729 63.5716 82.2871 64.9343 83.2625 64.9343C85.0234 64.9343 86.1686 67.2052 85.1272 68.6317C84.5408 69.435 83.6993 69.7346 82.0291 69.7346C80.2305 69.7346 79.7007 70.0706 79.7007 71.2117C79.7007 72.1399 80.0305 72.4853 81.2474 72.8312C82.3532 73.1454 82.7971 73.5044 83.1207 74.346C83.437 75.1689 83.2079 76.1656 82.545 76.85L81.9784 77.435L71.1308 77.4896L60.2831 77.5444V62.9218V48.2993L61.5943 46.1866C63.7573 42.7014 64.924 39.8132 64.924 37.9439C64.924 35.712 67.5209 34.1623 69.2081 35.3873ZM57.3129 63.4342V77.535H52.0223H46.7316V63.4342V49.3334H52.0223H57.3129V63.4342ZM49.2455 68.9895C48.8412 69.2361 48.2581 69.8252 47.9494 70.2984C47.4727 71.029 47.3877 71.3455 47.3847 72.3967C47.3784 74.7513 48.6964 76.3312 50.8043 76.4954C54.1105 76.753 56.0331 72.8718 54.0305 69.9828C53.0284 68.5371 50.7588 68.0659 49.2455 68.9895ZM51.6378 71.8489C52.044 72.2867 52.0017 72.8576 51.5368 73.2084C51.1388 73.5088 50.6491 73.4402 50.4007 73.0494C49.8167 72.1305 50.9124 71.0675 51.6378 71.8489Z" fill="url(#paint0_linear_1_228)" />
  </g>
  <defs>
    <filter id="filter0_d_1_228" x="0" y="0" width="133" height="142.298" filterUnits="userSpaceOnUse" color-interpolation-filters="sRGB">
      <feFlood flood-opacity="0" result="BackgroundImageFix" />
      <feColorMatrix in="SourceAlpha" type="matrix" values="0 0 0 0 0 0 0 0 0 0 0 0 0 0 0 0 0 0 127 0" result="hardAlpha" />
      <feOffset dy="10" />
      <feGaussianBlur stdDeviation="10" />
      <feComposite in2="hardAlpha" operator="out" />
      <feColorMatrix type="matrix" values="0 0 0 0 0.603922 0 0 0 0 0.14902 0 0 0 0 0.701961 0 0 0 0.5 0" />
      <feBlend mode="normal" in2="BackgroundImageFix" result="effect1_dropShadow_1_228" />
      <feBlend mode="normal" in="SourceGraphic" in2="effect1_dropShadow_1_228" result="shape" />
    </filter>
    <linearGradient id="paint0_linear_1_228" x1="66.5" y1="10" x2="66.5" y2="112.298" gradientUnits="userSpaceOnUse">
      <stop stop-color="#8A1FA8" />
      <stop offset="1" stop-color="#F650F5" />
    </linearGradient>
  </defs>
</svg>
  