<svg width="115" height="274" viewBox="0 0 115 274" fill="none" xmlns="http://www.w3.org/2000/svg">
  <path d="M114.354 158.354C114.549 158.158 114.549 157.842 114.354 157.646L111.172 154.464C110.976 154.269 110.66 154.269 110.464 154.464C110.269 154.66 110.269 154.976 110.464 155.172L113.293 158L110.464 160.828C110.269 161.024 110.269 161.34 110.464 161.536C110.66 161.731 110.976 161.731 111.172 161.536L114.354 158.354ZM0 158.5H2.85V157.5H0V158.5ZM8.55 158.5H14.25V157.5H8.55V158.5ZM19.95 158.5H25.65V157.5H19.95V158.5ZM31.35 158.5H37.05V157.5H31.35V158.5ZM42.75 158.5H48.45V157.5H42.75V158.5ZM54.15 158.5H59.85V157.5H54.15V158.5ZM65.55 158.5H71.25V157.5H65.55V158.5ZM76.95 158.5H82.65V157.5H76.95V158.5ZM88.35 158.5H94.05V157.5H88.35V158.5ZM99.75 158.5H105.45V157.5H99.75V158.5ZM111.15 158.5H114V157.5H111.15V158.5Z" fill="url(#paint0_linear_1_232)" />
  <path d="M48.5 1.9999C51.3333 0.333235 57 -1.0001 57 6.9999C57 14.9999 57 105.667 57 150L65 158L57 164.5V270C56.1667 272.167 57.6 275.2 46 270" stroke="url(#paint1_linear_1_232)" stroke-dasharray="6 6" />
  <defs>
    <linearGradient id="paint0_linear_1_232" x1="53.58" y1="157.726" x2="53.5809" y2="159.278" gradientUnits="userSpaceOnUse">
      <stop stop-color="#F624ED" />
      <stop offset="1" stop-color="white" />
    </linearGradient>
    <linearGradient id="paint1_linear_1_232" x1="54.335" y1="-73.8907" x2="236.697" y2="243.801" gradientUnits="userSpaceOnUse">
      <stop stop-color="#F624ED" />
      <stop offset="1" stop-color="white" />
    </linearGradient>
  </defs>
</svg>
  