<svg width="140" height="124" viewBox="0 0 140 124" fill="none" xmlns="http://www.w3.org/2000/svg">
  <g filter="url(#filter0_d_1_231)">
    <path fill-rule="evenodd" clip-rule="evenodd" d="M44.3604 10.3918C43.362 10.9149 42.8891 11.5886 42.6209 12.8696C42.317 14.3222 42.4739 17.2692 42.8987 18.0839C43.3823 19.0116 44.1918 19.675 45.1298 19.9123L45.9656 20.1239L45.9111 22.5494L45.8566 24.975L44.1195 25.3236C39.6857 26.2133 35.6998 29.2864 33.7637 33.3075C32.656 35.6087 32.4442 36.6665 32.3407 40.4189C32.2507 43.6815 32.2256 43.8528 31.6781 44.9546C30.7673 46.7875 30.9632 48.7928 32.2116 50.4165C32.8111 51.1961 34.4954 52.2331 35.1663 52.236C35.6514 52.2379 35.7652 52.4396 36.3129 54.2679C36.7192 55.6239 38.1901 57.8927 39.3187 58.9041L40.1111 59.6144L40.0539 60.9992L39.9967 62.3841L33.1601 65.0187C29.4 66.468 25.8758 67.8969 25.3287 68.1943C23.3043 69.2948 21.3827 71.6004 20.5236 73.9597C20.0841 75.1664 20.0716 75.3989 20.0142 83.3191C19.9728 89.0138 20.0208 91.5981 20.1747 91.9666C20.2956 92.2558 20.6574 92.7424 20.9789 93.0481L21.5635 93.6036L46.9926 93.6526C71.9279 93.7005 72.4336 93.6941 73.0458 93.3226C74.3764 92.5153 74.3682 92.5614 74.4358 85.5234L74.4967 79.1691L94.3595 79.166L114.222 79.1627L115.004 78.7291C115.518 78.4435 115.935 78.001 116.224 77.432L116.664 76.5682V62.8433C116.664 51.094 116.622 49.0385 116.374 48.563C115.875 47.6057 114.447 47.597 113.934 48.5481C113.803 48.7905 113.734 53.6422 113.734 62.5906V76.2629H94.0446H74.3553L74.1172 75.1188C73.5788 72.5341 71.3411 69.3975 69.2171 68.2509C68.6755 67.9585 65.0874 66.5118 61.2439 65.0361L54.2558 62.3529L54.198 60.9563L54.1402 59.5596L55.1102 58.5424C55.6436 57.9828 56.39 57.0447 56.7683 56.4578C57.4186 55.4497 58.2601 53.3559 58.2601 52.7463C58.2601 52.5783 58.6849 52.335 59.3281 52.1343C62.4626 51.1564 63.866 47.7795 62.3815 44.7884C61.7885 43.5933 61.776 43.5104 61.776 40.7469C61.776 37.2302 61.4621 35.6354 60.32 33.347C58.2601 29.2205 54.9166 26.5268 50.5168 25.4493L48.8842 25.0496V22.5622V20.0751H81.309H113.734V31.5891V43.1033L114.249 43.5048C114.89 44.0054 115.508 44.0159 116.105 43.5362L116.566 43.1657L116.62 31.6497L116.673 20.1338L117.423 19.9108C118.461 19.6023 119.188 18.9873 119.614 18.056C120.074 17.0516 120.142 13.0644 119.715 12.0766C119.39 11.3225 118.523 10.4865 117.774 10.2062C117.402 10.0665 111.967 10 100.927 10C84.89 10 84.6234 10.0062 84.239 10.3875C83.7126 10.9097 83.7229 11.9586 84.2595 12.4403C84.6549 12.7952 85.2873 12.8131 100.814 12.9063L116.957 13.0031L117.013 14.8149C117.05 15.9842 116.989 16.7228 116.843 16.8977C116.65 17.1281 111.309 17.1688 81.1944 17.1688C46.3738 17.1688 45.7693 17.1624 45.5704 16.7941C45.3354 16.3583 45.3017 13.5042 45.5273 13.1517C45.6462 12.9659 49.3841 12.9012 62.3022 12.8611C78.3344 12.8111 78.9387 12.7962 79.3352 12.4403C79.8718 11.9586 79.8822 10.9097 79.3557 10.3875C78.9709 10.0058 78.7106 10.0002 62.0202 10.0085C45.6554 10.0169 45.0508 10.03 44.3604 10.3918ZM49.7632 28.2515C52.9584 28.9273 56.1468 31.4511 57.6477 34.4925C58.5103 36.2405 58.8461 37.7866 58.8461 40.0109C58.8461 41.9652 58.6621 42.4481 58.3046 41.4311C58.0825 40.7991 54.9674 37.3859 54.1314 36.8587C53.2961 36.3317 52.191 36.527 50.5445 37.4925C47.4929 39.282 44.2058 40.2168 40.485 40.3536C37.3445 40.4691 36.7362 40.627 36.0647 41.5002C35.7846 41.8647 35.4674 42.1627 35.3597 42.1627C35.2343 42.1627 35.1982 41.3084 35.2593 39.7892C35.3697 37.0426 35.7742 35.5484 36.914 33.6795C39.6189 29.2435 44.5684 27.1526 49.7632 28.2515ZM97.6742 29.037C97.382 29.2763 97.0525 29.7175 96.9417 30.0174C96.8097 30.3745 96.7402 35.7115 96.7402 45.4783V60.3937L95.5193 60.3361L94.2985 60.2784L94.2009 49.3315C94.0956 37.5202 94.1208 37.7822 93.0328 37.224C92.2253 36.8097 87.7772 36.8097 86.9697 37.224C85.8817 37.7822 85.9069 37.5202 85.8017 49.3315L85.704 60.2784L84.4832 60.3361L83.2624 60.3937V57.2654C83.2624 52.5138 83.0244 52.2371 78.9356 52.2385C76.8918 52.2391 76.4283 52.2966 75.9011 52.6155C74.8753 53.2361 74.7811 53.5905 74.7014 57.1299L74.6284 60.3753H73.4761H72.3239L72.3129 53.3518C72.301 45.7633 72.2479 45.3117 71.2841 44.6028C70.7866 44.2368 70.467 44.1971 68.0266 44.1971C65.5861 44.1971 65.2666 44.2368 64.7691 44.6028C63.8053 45.3117 63.7522 45.7633 63.7403 53.3518C63.7297 60.1542 63.7174 60.3753 63.3529 60.3753C62.9134 60.3753 62.1667 61.2386 62.1667 61.7468C62.1667 61.9396 62.3788 62.342 62.638 62.641L63.1095 63.1847L84.1732 63.2317C100.777 63.2688 105.339 63.2271 105.719 63.0351C105.985 62.9012 106.336 62.553 106.501 62.2616C106.769 61.7856 106.769 61.6773 106.5 61.1987C106.335 60.9058 105.961 60.5522 105.669 60.4131L105.139 60.1604V45.0389V29.9176L104.475 29.2589L103.811 28.6001L101.008 28.6011C98.3919 28.602 98.1698 28.6309 97.6742 29.037ZM102.209 45.9408V60.3753H100.94H99.6701V45.9408V31.5064H100.94H102.209V45.9408ZM54.2238 40.9814L55.5254 42.3188V46.7674C55.5254 49.2142 55.4362 51.6857 55.3272 52.2598C54.8685 54.6742 53.0277 57.0166 50.7639 58.0675C45.5642 60.4811 39.6128 57.4053 38.7339 51.8502C38.6243 51.1576 38.534 48.9562 38.5333 46.958L38.5317 43.3252L40.3385 43.3227C43.5191 43.3182 47.5702 42.2725 50.8375 40.6127C51.8581 40.0942 52.7447 39.6643 52.8076 39.6569C52.8705 39.6497 53.5079 40.2457 54.2238 40.9814ZM91.2709 50.1065V60.3753H90.0013H88.7316V50.1065V39.8377H90.0013H91.2709V50.1065ZM35.4953 49.3078C35.4293 49.3733 35.0745 49.1017 34.7071 48.7039C34.1729 48.1258 34.0391 47.8212 34.0391 47.1837C34.0391 46.5172 34.1594 46.2704 34.7716 45.6793L35.5041 44.9721L35.5597 47.0805C35.5904 48.2399 35.5615 49.2423 35.4953 49.3078ZM59.4471 45.6353C59.9303 46.1148 60.018 46.3549 60.018 47.2002C60.018 48.0455 59.9303 48.2856 59.4471 48.7651C59.133 49.0767 58.7814 49.3315 58.6658 49.3315C58.5283 49.3315 58.4554 48.5933 58.4554 47.2002C58.4554 45.8071 58.5283 45.0689 58.6658 45.0689C58.7814 45.0689 59.133 45.3237 59.4471 45.6353ZM69.3476 53.6424L69.2962 60.2784H68.0266H66.7569L66.7056 53.6424L66.6542 47.0065H68.0266H69.399L69.3476 53.6424ZM80.3324 57.7596V60.3753H79.0628H77.7931V57.7596V55.144H79.0628H80.3324V57.7596ZM44.2096 61.4632C45.5888 61.8699 48.8184 61.8654 50.1539 61.4549C50.691 61.2896 51.1526 61.1536 51.1793 61.1524C51.2061 61.1512 51.2282 61.5339 51.2282 62.0028C51.2282 62.7941 51.0858 63.0306 49.2446 65.2966C48.1537 66.6392 47.2087 67.7326 47.1448 67.726C47.0809 67.7196 46.1275 66.5945 45.0264 65.2258C43.2214 62.9824 43.0243 62.6592 43.0243 61.9439C43.0243 61.5074 43.0522 61.1503 43.0864 61.1503C43.1208 61.1503 43.6261 61.2911 44.2096 61.4632ZM44.9753 69.8627C44.9739 69.9195 44.6881 70.1525 44.3404 70.3806C43.9925 70.6086 43.2048 71.1569 42.5897 71.5989L41.4712 72.4024L39.8988 69.2872L38.3262 66.1723L39.0638 65.8644C39.4695 65.6953 40.1066 65.451 40.4799 65.3217L41.1585 65.0867L43.068 67.4232C44.1183 68.7081 44.9764 69.8059 44.9753 69.8627ZM55.5743 65.9437C55.7624 65.9962 55.9114 66.138 55.9058 66.2589C55.9001 66.3796 55.2186 67.8078 54.3912 69.4324L52.8869 72.3863L51.0932 71.1194L49.2997 69.8524L51.2579 67.4484L53.216 65.0445L54.2243 65.4461C54.7787 65.6672 55.3862 65.891 55.5743 65.9437ZM37.447 70.9085C39.5083 75.1236 39.8133 75.4879 41.2812 75.4879C41.7974 75.4879 42.2742 75.4007 42.3406 75.2941C42.5514 74.956 42.9237 75.0839 43.2417 75.6037C43.5298 76.0747 43.4841 76.4878 42.5285 82.0459C41.967 85.3124 41.4013 88.6168 41.2716 89.3895L41.0356 90.7942H36.5608H32.0858V84.802V78.8097L31.5711 78.4083C30.9011 77.8855 30.4729 77.9014 29.8016 78.4739L29.2535 78.9413L29.1941 84.8677L29.1347 90.7942H26.02H22.9053V83.5638C22.9053 75.8492 22.9758 75.1606 23.9306 73.5503C24.4536 72.668 25.7647 71.3055 26.5658 70.8115C27.0105 70.5371 34.47 67.5195 35.5582 67.1738C35.5879 67.1643 36.4378 68.8449 37.447 70.9085ZM63.0457 68.8319C67.4425 70.5071 68.6915 71.2199 69.8146 72.6955C71.4199 74.8043 71.4218 74.8175 71.5027 83.2863L71.5744 90.7942H68.3354H65.0966V84.9689C65.0966 81.2333 65.0222 79.0058 64.8894 78.7595C64.388 77.8303 62.8388 77.9177 62.3874 78.9008C62.2393 79.223 62.1667 81.2601 62.1667 85.0913V90.8016L57.7352 90.7494L53.3039 90.6973L52.0579 83.4316C50.9477 76.9569 50.8414 76.1133 51.0823 75.6816C51.2573 75.3681 51.4858 75.2211 51.7298 75.2647C54.4662 75.7543 54.5119 75.7173 56.8357 71.1283C57.8878 69.0511 58.8363 67.3497 58.9437 67.3476C59.0512 67.3455 60.897 68.0133 63.0457 68.8319ZM48.0671 72.5225C48.4629 72.8096 48.8606 73.1055 48.9512 73.1799C49.0418 73.2543 48.9659 73.5424 48.7822 73.8202C48.4808 74.2765 48.3291 74.3253 47.2126 74.3253C46.1566 74.3253 45.932 74.2626 45.6724 73.8946C45.5052 73.6579 45.3683 73.4012 45.3683 73.324C45.3683 73.1632 46.9475 72.022 47.1882 72.0091C47.2759 72.0042 47.6714 72.2354 48.0671 72.5225ZM49.1485 83.7707C49.7618 87.3673 50.2609 90.4189 50.2576 90.552C50.2529 90.7355 49.4899 90.7942 47.1108 90.7942H43.9699L44.0808 90.2614C44.142 89.9684 44.634 87.1129 45.1743 83.916C45.7146 80.7191 46.2008 77.9074 46.2545 77.6676C46.3375 77.2981 46.4805 77.2316 47.1928 77.2316H48.0333L49.1485 83.7707Z" fill="url(#paint0_linear_1_231)" />
  </g>
  <defs>
    <filter id="filter0_d_1_231" x="0" y="0" width="140" height="123.673" filterUnits="userSpaceOnUse" color-interpolation-filters="sRGB">
      <feFlood flood-opacity="0" result="BackgroundImageFix" />
      <feColorMatrix in="SourceAlpha" type="matrix" values="0 0 0 0 0 0 0 0 0 0 0 0 0 0 0 0 0 0 127 0" result="hardAlpha" />
      <feOffset dy="10" />
      <feGaussianBlur stdDeviation="10" />
      <feComposite in2="hardAlpha" operator="out" />
      <feColorMatrix type="matrix" values="0 0 0 0 0.109804 0 0 0 0 0.192157 0 0 0 0 0.866667 0 0 0 0.74 0" />
      <feBlend mode="normal" in2="BackgroundImageFix" result="effect1_dropShadow_1_231" />
      <feBlend mode="normal" in="SourceGraphic" in2="effect1_dropShadow_1_231" result="shape" />
    </filter>
    <linearGradient id="paint0_linear_1_231" x1="70" y1="10" x2="70" y2="93.6735" gradientUnits="userSpaceOnUse">
      <stop stop-color="#5B66C2" />
      <stop offset="1" stop-color="#1026E3" />
    </linearGradient>
  </defs>
</svg>
  