<svg width="59" height="59" viewBox="0 0 59 59" fill="none" xmlns="http://www.w3.org/2000/svg">
<g filter="url(#filter0_d_1_1445)">
<path fill-rule="evenodd" clip-rule="evenodd" d="M26.5622 16.9167L23.6497 19.8334L24.723 20.9072C25.3133 21.4978 25.8079 21.9708 25.8221 21.9583C25.8363 21.9458 26.6679 21.1174 27.6701 20.1174L29.4923 18.2993L31.2586 20.0674C32.2302 21.0398 33.0659 21.8676 33.1158 21.9068C33.1991 21.9724 33.2942 21.8906 34.2784 20.9058L35.3503 19.8334L32.4378 16.9167C30.836 15.3125 29.514 14 29.5 14C29.4861 14 28.164 15.3125 26.5622 16.9167ZM28.387 22.3991L27.3 23.4885L28.4 24.5891L29.5 25.6897L30.575 24.6141C31.1663 24.0226 31.65 23.5157 31.65 23.4876C31.65 23.4378 29.5484 21.3097 29.4992 21.3097C29.4854 21.3097 28.985 21.7999 28.387 22.3991ZM21.062 22.4242L20 23.4885L21.0731 24.5622C21.6633 25.1528 22.1571 25.6257 22.1704 25.6132C22.1836 25.6006 22.6687 25.118 23.2483 24.5405L24.3022 23.4906L23.239 22.4252C22.6543 21.8392 22.1643 21.3598 22.15 21.3598C22.1358 21.3598 21.6462 21.8387 21.062 22.4242ZM35.7443 22.4123C35.1699 22.9911 34.7 23.4754 34.7 23.4884C34.7 23.513 36.5485 25.3669 36.7434 25.5377L36.8546 25.6351L37.9272 24.5618L39 23.4885L37.9379 22.4242C37.3538 21.8387 36.8562 21.3598 36.8322 21.3598C36.8081 21.3598 36.3186 21.8334 35.7443 22.4123ZM24.7122 26.0789L23.6503 27.1431L26.5751 30.0715L29.5 33L32.4 30.0964C33.995 28.4995 35.3 27.1701 35.3 27.1422C35.3 27.1144 34.8289 26.6203 34.2533 26.0443C33.3019 25.0925 33.1986 25.0035 33.1195 25.0684C33.0717 25.1077 32.2375 25.9392 31.2656 26.9161L29.4985 28.6925L27.6615 26.8536C26.6512 25.8422 25.8131 25.0147 25.7993 25.0147C25.7854 25.0147 25.2962 25.4936 24.7122 26.0789Z" fill="#F6C22F"/>
</g>
<defs>
<filter id="filter0_d_1_1445" x="0" y="0" width="59" height="59" filterUnits="userSpaceOnUse" color-interpolation-filters="sRGB">
<feFlood flood-opacity="0" result="BackgroundImageFix"/>
<feColorMatrix in="SourceAlpha" type="matrix" values="0 0 0 0 0 0 0 0 0 0 0 0 0 0 0 0 0 0 127 0" result="hardAlpha"/>
<feOffset dy="6"/>
<feGaussianBlur stdDeviation="10"/>
<feComposite in2="hardAlpha" operator="out"/>
<feColorMatrix type="matrix" values="0 0 0 0 0.498681 0 0 0 0 0.60935 0 0 0 0 0.716667 0 0 0 0.7 0"/>
<feBlend mode="normal" in2="BackgroundImageFix" result="effect1_dropShadow_1_1445"/>
<feBlend mode="normal" in="SourceGraphic" in2="effect1_dropShadow_1_1445" result="shape"/>
</filter>
</defs>
</svg>
