<svg width="19" height="19" viewBox="0 0 19 19" fill="none" xmlns="http://www.w3.org/2000/svg">
  <path fill-rule="evenodd" clip-rule="evenodd" d="M6.5622 2.91668L3.6497 5.83337L4.723 6.9072C5.3133 7.49778 5.8079 7.97081 5.8221 7.9583C5.8363 7.94578 6.6679 7.11743 7.6701 6.11745L9.49225 4.29927L11.2586 6.06738C12.2302 7.03982 13.0659 7.86758 13.1158 7.90683C13.1991 7.97241 13.2942 7.89056 14.2784 6.9058L15.3503 5.83337L12.4378 2.91668C10.836 1.3125 9.51395 0 9.5 0C9.48605 0 8.16405 1.3125 6.5622 2.91668ZM8.38705 8.39908L7.3 9.48848L8.4 10.5891L9.5 11.6897L10.575 10.6141C11.1663 10.0226 11.65 9.51567 11.65 9.48763C11.65 9.43777 9.5484 7.30973 9.49915 7.30973C9.4854 7.30973 8.98495 7.79993 8.38705 8.39908ZM1.06205 8.42417L0 9.48848L1.07315 10.5622C1.66335 11.1528 2.1571 11.6257 2.17035 11.6132C2.1836 11.6006 2.66865 11.118 3.2483 10.5405L4.30215 9.49064L3.239 8.42522C2.6543 7.83924 2.16425 7.3598 2.15 7.3598C2.13575 7.3598 1.6462 7.83874 1.06205 8.42417ZM15.7443 8.41225C15.1699 8.99112 14.7 9.47537 14.7 9.48838C14.7 9.51302 16.5485 11.3669 16.7434 11.5377L16.8546 11.6351L17.9272 10.5618L19 9.48848L17.9379 8.42417C17.3538 7.83874 16.8562 7.3598 16.8322 7.3598C16.8081 7.3598 16.3186 7.83343 15.7443 8.41225ZM4.7122 12.0789L3.65025 13.1431L6.57515 16.0715L9.5 19L12.4 16.0964C13.995 14.4995 15.3 13.1701 15.3 13.1422C15.3 13.1144 14.8289 12.6203 14.2533 12.0443C13.3019 11.0925 13.1986 11.0035 13.1195 11.0684C13.0717 11.1077 12.2375 11.9392 11.2656 12.9161L9.49845 14.6925L7.66145 12.8536C6.65115 11.8422 5.81315 11.0147 5.7993 11.0147C5.78545 11.0147 5.29625 11.4936 4.7122 12.0789Z" fill="#F6C22F" />
</svg>
  