<svg width="115" height="115" viewBox="0 0 115 115" fill="none" xmlns="http://www.w3.org/2000/svg">
  <g filter="url(#filter0_d_1_3341)">
    <path fill-rule="evenodd" clip-rule="evenodd" d="M54.5623 48.9167L51.6498 51.8334L52.7231 52.9072C53.3134 53.4978 53.808 53.9708 53.8222 53.9583C53.8364 53.9458 54.668 53.1174 55.6702 52.1174L57.4924 50.2993L59.2587 52.0674C60.2303 53.0398 61.066 53.8676 61.1159 53.9068C61.1992 53.9724 61.2943 53.8906 62.2785 52.9058L63.3504 51.8334L60.4379 48.9167C58.8361 47.3125 57.5141 46 57.5001 46C57.4862 46 56.1642 47.3125 54.5623 48.9167ZM56.3872 54.3991L55.3001 55.4885L56.4001 56.5891L57.5001 57.6897L58.5751 56.6141C59.1664 56.0226 59.6501 55.5157 59.6501 55.4876C59.6501 55.4378 57.5485 53.3097 57.4993 53.3097C57.4855 53.3097 56.9851 53.7999 56.3872 54.3991ZM49.0622 54.4242L48.0001 55.4885L49.0733 56.5622C49.6635 57.1528 50.1572 57.6257 50.1705 57.6132C50.1837 57.6006 50.6688 57.118 51.2484 56.5405L52.3023 55.4906L51.2391 54.4252C50.6544 53.8392 50.1644 53.3598 50.1501 53.3598C50.1359 53.3598 49.6463 53.8387 49.0622 54.4242ZM63.7444 54.4123C63.17 54.9911 62.7001 55.4754 62.7001 55.4884C62.7001 55.513 64.5487 57.3669 64.7435 57.5377L64.8547 57.6351L65.9274 56.5618L67.0001 55.4885L65.9381 54.4242C65.3539 53.8387 64.8563 53.3598 64.8323 53.3598C64.8083 53.3598 64.3187 53.8334 63.7444 54.4123ZM52.7123 58.0789L51.6504 59.1431L54.5753 62.0715L57.5001 65L60.4001 62.0964C61.9951 60.4995 63.3001 59.1701 63.3001 59.1422C63.3001 59.1144 62.8291 58.6203 62.2534 58.0443C61.302 57.0925 61.1987 57.0035 61.1197 57.0684C61.0719 57.1077 60.2376 57.9392 59.2657 58.9161L57.4986 60.6925L55.6616 58.8536C54.6513 57.8422 53.8133 57.0147 53.7994 57.0147C53.7856 57.0147 53.2964 57.4936 52.7123 58.0789Z" fill="url(#paint0_linear_1_3341)" />
  </g>
  <defs>
    <filter id="filter0_d_1_3341" x="0.00012207" y="0" width="115" height="115" filterUnits="userSpaceOnUse" color-interpolation-filters="sRGB">
      <feFlood flood-opacity="0" result="BackgroundImageFix" />
      <feColorMatrix in="SourceAlpha" type="matrix" values="0 0 0 0 0 0 0 0 0 0 0 0 0 0 0 0 0 0 127 0" result="hardAlpha" />
      <feOffset dy="2" />
      <feGaussianBlur stdDeviation="24" />
      <feComposite in2="hardAlpha" operator="out" />
      <feColorMatrix type="matrix" values="0 0 0 0 0.964706 0 0 0 0 0.141176 0 0 0 0 0.929412 0 0 0 0.7 0" />
      <feBlend mode="normal" in2="BackgroundImageFix" result="effect1_dropShadow_1_3341" />
      <feBlend mode="normal" in="SourceGraphic" in2="effect1_dropShadow_1_3341" result="shape" />
    </filter>
    <linearGradient id="paint0_linear_1_3341" x1="56.9301" y1="40.7897" x2="58.8195" y2="70.1574" gradientUnits="userSpaceOnUse">
      <stop stop-color="#F624ED" />
      <stop offset="1" stop-color="white" />
    </linearGradient>
  </defs>
</svg>
  