<svg width="178" height="183" viewBox="0 0 178 183" fill="none" xmlns="http://www.w3.org/2000/svg">
<g filter="url(#filter0_bd_1_1384)">
<circle cx="89" cy="84" r="42" fill="white"/>
<circle cx="89" cy="84" r="41" stroke="#6C0F75" stroke-width="2"/>
</g>
<g filter="url(#filter1_d_1_1384)">
<path fill-rule="evenodd" clip-rule="evenodd" d="M71.38 62.1764C70.7062 62.4292 69.9876 63.5105 70.0056 64.2446C70.0118 64.4998 70.0198 64.4949 70.0961 64.1886C70.1543 63.9544 70.1836 64.1594 70.1927 64.8656C70.2054 65.8621 70.2136 65.8918 70.7026 66.7023C71.4593 67.9569 72.1202 68.7502 73.7856 70.4028C74.6235 71.2341 76.272 72.9976 77.449 74.3216C80.0682 77.2679 86.867 84.8421 88.5988 86.7428C89.2966 87.5086 90.143 88.4408 90.4797 88.8142C92.4013 90.9451 94.0439 92.7729 94.9609 93.8005C95.5333 94.4419 96.2765 95.2718 96.6124 95.6448C96.9485 96.0177 97.54 96.6779 97.9269 97.1117C99.2628 98.6093 100.714 100.234 101.314 100.904C105.127 105.163 105.008 105.058 105.979 104.976C106.731 104.912 107.277 104.495 107.618 103.725C108.008 102.841 108.06 102.214 107.793 101.596C107.285 100.423 105.835 98.5958 102.745 95.236C101.191 93.5463 100.691 92.9943 99.0138 91.1156C98.4415 90.4746 97.6978 89.6459 97.3612 89.2738C96.4762 88.2955 95.53 87.2474 94.7793 86.414C94.4189 86.0137 93.7823 85.3077 93.3649 84.8451C92.9474 84.3824 92.1376 83.4799 91.5653 82.8392C90.993 82.1986 90.4015 81.5396 90.2509 81.3747C89.8653 80.9525 88.3181 79.2081 87.6197 78.4084C87.297 78.0389 86.8031 77.4846 86.5221 77.1767C85.9242 76.5216 82.33 72.5224 80.8933 70.9136C80.3468 70.3016 78.4015 68.1419 76.5704 66.1144C72.7048 61.8339 72.5684 61.7304 71.38 62.1764ZM105.203 62.5087C104.962 62.5995 104.757 62.6745 104.747 62.6754C104.738 62.6763 103.778 63.7225 102.615 65.0004C101.451 66.2782 100.399 67.4273 100.277 67.5539C100.061 67.7768 97.8882 70.1476 96.5492 71.6203C95.7978 72.4467 95.8094 72.4342 93.9751 74.425C93.222 75.2424 92.5009 76.1203 92.3725 76.376C91.5077 78.0983 92.5325 80.4797 94.1385 80.4797C94.919 80.4797 95.227 80.2546 96.8231 78.517C97.2749 78.0251 98.0389 77.1942 98.5209 76.6706C99.8597 75.2163 102.523 72.318 103.097 71.6904C103.279 71.4919 103.609 71.6204 103.61 71.8894L103.612 81.4069C103.614 89.5286 103.643 91.6924 103.751 91.7264C103.827 91.7502 104.813 91.7983 105.944 91.8333C107.068 91.8683 107.998 90.9652 107.996 89.8404L107.971 78.1469L107.943 65.1341C107.942 64.6491 107.828 64.1709 107.611 63.7372C107.063 62.6416 106.123 62.1622 105.203 62.5087ZM71.6767 77.5475C71.2507 77.7746 70.7455 78.126 70.5539 78.3282C70.3302 78.5644 70.2054 78.8773 70.2051 79.2026L70.1927 90.7005C70.1856 97.303 70.1421 102.554 70.0961 102.369C70.0189 102.059 70.0115 102.055 70.0006 102.313C69.9793 102.813 70.5684 103.876 71.1076 104.312C71.4186 104.563 72.082 104.666 72.5607 104.539C73.0388 104.412 73.1966 104.257 76.2755 100.907C77.2343 99.8638 78.3697 98.6323 78.7986 98.1704C79.2275 97.7086 79.9712 96.9021 80.451 96.3782C80.9309 95.8543 82.0182 94.6702 82.8672 93.747C85.425 90.9652 85.5143 90.8524 85.7141 90.1498C86.1973 88.4505 85.2758 86.6707 83.8502 86.5499C83.1028 86.4865 82.6563 86.7014 81.9663 87.4568C81.2968 88.1897 80.2092 89.3747 78.2468 91.5092C77.398 92.4325 76.1657 93.7836 75.5084 94.5116C75.0862 94.9792 74.3097 94.6818 74.3078 94.0518L74.2852 86.6472L74.2585 77.8898C74.2577 77.6284 74.1014 77.3926 73.8611 77.2899C73.1977 77.0067 72.5467 77.0834 71.6767 77.5475Z" fill="url(#paint0_linear_1_1384)"/>
</g>
<defs>
<filter id="filter0_bd_1_1384" x="7" y="16" width="164" height="164" filterUnits="userSpaceOnUse" color-interpolation-filters="sRGB">
<feFlood flood-opacity="0" result="BackgroundImageFix"/>
<feGaussianBlur in="BackgroundImage" stdDeviation="8"/>
<feComposite in2="SourceAlpha" operator="in" result="effect1_backgroundBlur_1_1384"/>
<feColorMatrix in="SourceAlpha" type="matrix" values="0 0 0 0 0 0 0 0 0 0 0 0 0 0 0 0 0 0 127 0" result="hardAlpha"/>
<feOffset dy="14"/>
<feGaussianBlur stdDeviation="20"/>
<feComposite in2="hardAlpha" operator="out"/>
<feColorMatrix type="matrix" values="0 0 0 0 0.160784 0 0 0 0 0.27451 0 0 0 0 0.384314 0 0 0 0.31 0"/>
<feBlend mode="normal" in2="effect1_backgroundBlur_1_1384" result="effect2_dropShadow_1_1384"/>
<feBlend mode="normal" in="SourceGraphic" in2="effect2_dropShadow_1_1384" result="shape"/>
</filter>
<filter id="filter1_d_1_1384" x="0" y="0" width="177.996" height="183" filterUnits="userSpaceOnUse" color-interpolation-filters="sRGB">
<feFlood flood-opacity="0" result="BackgroundImageFix"/>
<feColorMatrix in="SourceAlpha" type="matrix" values="0 0 0 0 0 0 0 0 0 0 0 0 0 0 0 0 0 0 127 0" result="hardAlpha"/>
<feOffset dy="8"/>
<feGaussianBlur stdDeviation="35"/>
<feComposite in2="hardAlpha" operator="out"/>
<feColorMatrix type="matrix" values="0 0 0 0 0.925 0 0 0 0 0.300625 0 0 0 0 0.898241 0 0 0 0.5 0"/>
<feBlend mode="normal" in2="BackgroundImageFix" result="effect1_dropShadow_1_1384"/>
<feBlend mode="normal" in="SourceGraphic" in2="effect1_dropShadow_1_1384" result="shape"/>
</filter>
<linearGradient id="paint0_linear_1_1384" x1="66.2176" y1="35.34" x2="112.94" y2="39.0152" gradientUnits="userSpaceOnUse">
<stop stop-color="#006CFA"/>
<stop offset="0.947" stop-color="#F50685"/>
</linearGradient>
</defs>
</svg>
