<svg width="118" height="115" viewBox="0 0 118 115" fill="none" xmlns="http://www.w3.org/2000/svg">
  <g filter="url(#filter0_d_1_1404)">
    <path fill-rule="evenodd" clip-rule="evenodd" d="M53.6494 46.0404C53.5598 46.0749 52.3211 46.7592 50.8968 47.5611C49.006 48.6258 48.2658 49.0983 48.1536 49.3125C48.0317 49.5451 48 50.2394 48 52.6773C48 55.3252 48.0244 55.7897 48.1773 56.045C48.2996 56.2495 49.1619 56.7999 50.9615 57.8219C53.1597 59.0706 53.6385 59.3026 54.0163 59.3022C54.4804 59.3017 54.4047 59.3426 61.7543 55.124C63.1545 54.3203 63.5888 54.1199 63.9303 54.1199C64.5209 54.1199 67.3636 55.6955 67.6712 56.1934C67.8558 56.4924 67.8807 56.7437 67.881 58.3128C67.8815 59.9907 67.8671 60.114 67.6328 60.4573C67.2835 60.969 64.5014 62.591 63.9729 62.591C63.5084 62.591 60.5584 60.9646 60.2889 60.56C60.1663 60.3759 60.0973 59.9508 60.0593 59.1459L60.0049 57.9952L58.9728 58.6133L57.9407 59.2314L57.946 60.3483C57.9501 61.242 57.9906 61.5239 58.1486 61.7601C58.2768 61.9514 59.266 62.573 60.9644 63.5293C63.1577 64.7644 63.6538 65.003 64.0209 65C64.3821 64.997 64.8989 64.7456 66.958 63.5715C68.3323 62.7878 69.579 62.0283 69.7284 61.8838L70 61.6211V58.3555V55.0898L69.7284 54.8269C69.579 54.6822 68.3079 53.9092 66.9037 53.109C64.9415 51.9908 64.2617 51.6541 63.9665 51.6539C63.6777 51.6538 63.1651 51.8959 61.9023 52.6294C60.9783 53.1659 59.5133 54.005 58.6469 54.4941C57.7805 54.9831 56.4849 55.7261 55.7679 56.1452C54.0469 57.151 54.039 57.1509 52.178 56.0991C50.6318 55.2251 50.3233 54.993 50.1662 54.5852C50.11 54.4396 50.0644 53.5395 50.0646 52.585C50.065 51.0906 50.0927 50.8048 50.2643 50.5278C50.5445 50.0755 53.4527 48.4368 53.9753 48.4368C54.4979 48.4368 57.4061 50.0755 57.6863 50.5278C57.8452 50.7844 57.8857 51.0714 57.886 51.9457L57.8864 53.042L58.8914 52.4594L59.8963 51.8769L59.9272 50.7483C59.9497 49.9186 59.9158 49.5394 59.7991 49.3164C59.6821 49.0931 58.9668 48.6246 57.087 47.54C54.6826 46.1525 54.0617 45.8817 53.6494 46.0404Z" fill="#7241C9" />
  </g>
  <defs>
    <filter id="filter0_d_1_1404" x="0" y="0" width="118" height="115" filterUnits="userSpaceOnUse" color-interpolation-filters="sRGB">
      <feFlood flood-opacity="0" result="BackgroundImageFix" />
      <feColorMatrix in="SourceAlpha" type="matrix" values="0 0 0 0 0 0 0 0 0 0 0 0 0 0 0 0 0 0 127 0" result="hardAlpha" />
      <feOffset dy="2" />
      <feGaussianBlur stdDeviation="24" />
      <feComposite in2="hardAlpha" operator="out" />
      <feColorMatrix type="matrix" values="0 0 0 0 0.964706 0 0 0 0 0.141176 0 0 0 0 0.929412 0 0 0 0.7 0" />
      <feBlend mode="normal" in2="BackgroundImageFix" result="effect1_dropShadow_1_1404" />
      <feBlend mode="normal" in="SourceGraphic" in2="effect1_dropShadow_1_1404" result="shape" />
    </filter>
  </defs>
</svg>