<svg width="21" height="17" viewBox="0 0 21 17" fill="none" xmlns="http://www.w3.org/2000/svg">
<path d="M13.905 1.98284C13.145 1.98272 12.4153 2.27822 11.8729 2.80575C11.3305 3.33329 11.0189 4.0507 11.005 4.8036L10.977 6.36409C10.9754 6.44787 10.9559 6.53036 10.9198 6.60616C10.8837 6.68195 10.8319 6.74933 10.7676 6.80387C10.7034 6.85842 10.6283 6.8989 10.5472 6.92265C10.4661 6.94641 10.3808 6.9529 10.297 6.94171L8.736 6.73167C6.682 6.45425 4.714 5.51697 2.826 3.95846C2.228 7.23796 3.396 9.50982 6.209 11.2625L7.956 12.3504C8.03901 12.4021 8.10797 12.4731 8.15685 12.5573C8.20573 12.6415 8.23304 12.7363 8.23639 12.8334C8.23975 12.9305 8.21905 13.0269 8.17609 13.1142C8.13314 13.2015 8.06924 13.2771 7.99 13.3342L6.398 14.4865C7.345 14.545 8.244 14.5034 8.99 14.3567C13.708 13.4234 16.845 9.90614 16.845 4.10411C16.845 3.63051 15.833 1.98284 13.905 1.98284V1.98284ZM9.005 4.76694C9.02245 3.81188 9.32389 2.88314 9.87156 2.097C10.4192 1.31087 11.1888 0.702273 12.0839 0.347421C12.979 -0.00743025 13.9599 -0.0927711 14.9037 0.102084C15.8476 0.296939 16.7124 0.763331 17.39 1.44286C18.101 1.43791 18.706 1.61625 20.059 0.803809C19.724 2.42869 19.559 3.13413 18.845 4.10411C18.845 11.6757 14.148 15.3574 9.382 16.2997C6.114 16.9457 1.362 15.8845 0 14.4756C0.694 14.4221 3.514 14.1219 5.144 12.9399C3.765 12.0393 -1.724 8.83906 1.883 0.235099C3.576 2.19388 5.293 3.52747 7.033 4.23489C8.191 4.70551 8.475 4.69561 9.006 4.76793L9.005 4.76694Z" fill="white"/>
</svg>
