<svg width="20" height="20" viewBox="0 0 20 20" fill="none" xmlns="http://www.w3.org/2000/svg">
<path d="M10 17.8341C12.1217 17.8341 14.1566 16.999 15.6569 15.5126C17.1571 14.0261 18 12.01 18 9.90783C18 7.80566 17.1571 5.78958 15.6569 4.30312C14.1566 2.81665 12.1217 1.98157 10 1.98157C7.87827 1.98157 5.84344 2.81665 4.34315 4.30312C2.84285 5.78958 2 7.80566 2 9.90783C2 12.01 2.84285 14.0261 4.34315 15.5126C5.84344 16.999 7.87827 17.8341 10 17.8341V17.8341ZM10 19.8157C4.477 19.8157 0 15.3799 0 9.90783C0 4.43574 4.477 0 10 0C15.523 0 20 4.43574 20 9.90783C20 15.3799 15.523 19.8157 10 19.8157ZM6.89 11.067L4.392 10.2952C3.852 10.1318 3.849 9.76318 4.513 9.49864L14.246 5.77329C14.811 5.54541 15.131 5.83373 14.948 6.55601L13.291 14.3039C13.175 14.8558 12.84 14.9876 12.375 14.7329L9.824 12.8623L8.635 13.9998C8.513 14.1167 8.414 14.2168 8.226 14.2415C8.039 14.2673 7.885 14.2118 7.772 13.9047L6.902 11.0601L6.89 11.068V11.067Z" fill="white"/>
</svg>
