<svg width="23" height="21" viewBox="0 0 23 21" fill="none" xmlns="http://www.w3.org/2000/svg">
<path d="M10.0588 5.48857L10.8098 1.69796C10.8645 1.4225 10.9692 1.16129 11.1181 0.929235C11.2669 0.697182 11.4569 0.498838 11.6773 0.345531C11.8977 0.192224 12.144 0.0869589 12.4024 0.0357476C12.6607 -0.0154638 12.9259 -0.0116176 13.1828 0.0470662L16.3788 0.776031C16.6734 0.425292 17.0678 0.188574 17.5007 0.10259C17.9336 0.016607 18.3809 0.0861647 18.7732 0.300475C19.1655 0.514785 19.4808 0.861871 19.6703 1.2879C19.8598 1.71392 19.9129 2.19508 19.8213 2.65674C19.7297 3.1184 19.4986 3.53476 19.1637 3.84124C18.8289 4.14772 18.4091 4.32719 17.9694 4.35182C17.5297 4.37645 17.0948 4.24486 16.732 3.97746C16.3692 3.71006 16.0988 3.32179 15.9628 2.87288L12.7668 2.14391L12.1008 5.50465C13.8848 5.65152 15.6578 6.28722 17.2638 7.32707C17.7411 7.04261 18.2784 6.89415 18.8244 6.89589C19.3705 6.89763 19.907 7.0495 20.3826 7.33699C20.8583 7.62448 21.2572 8.03796 21.5412 8.53792C21.8252 9.03787 21.9848 9.60757 22.0048 10.1925V10.2151C22.0125 10.7394 21.9076 11.2586 21.6983 11.7326C21.4891 12.2066 21.181 12.6226 20.7978 12.9487C20.796 12.9927 20.7934 13.0366 20.7898 13.0805C20.7898 17.3664 16.3398 20.6167 10.9908 20.6167C5.65882 20.6167 1.28282 17.375 1.28582 13.1631C1.28146 13.0985 1.27813 13.0338 1.27582 12.969C0.629939 12.4493 0.191826 11.6865 0.0497761 10.8342C-0.092274 9.98199 0.0722987 9.10371 0.510328 8.37638C0.948358 7.64904 1.62728 7.12674 2.41028 6.91471C3.19327 6.70269 4.02213 6.81671 4.72982 7.2338C6.34493 6.19035 8.1755 5.59085 10.0588 5.48857ZM19.3448 11.4125C19.7528 11.1949 20.0088 10.7478 20.0058 10.2601C19.9954 10.0148 19.9193 9.77792 19.7866 9.57779C19.6539 9.37767 19.4702 9.22276 19.2576 9.13161C19.0449 9.04046 18.8122 9.01692 18.5874 9.06382C18.3626 9.11071 18.1551 9.22606 17.9898 9.39604L17.4048 9.99637L16.7348 9.5086C15.1198 8.33154 13.2828 7.65939 11.5048 7.61758H10.4988C8.62382 7.64867 6.84782 8.26079 5.26182 9.41319L4.59882 9.8956L4.01482 9.30599C3.88888 9.17927 3.73876 9.0834 3.57484 9.02502C3.41092 8.96664 3.23712 8.94715 3.06548 8.9679C2.89384 8.98865 2.72846 9.04913 2.58078 9.14517C2.4331 9.24121 2.30666 9.37051 2.2102 9.52412C2.11375 9.67772 2.04959 9.85196 2.02216 10.0348C1.99473 10.2176 2.00469 10.4046 2.05136 10.5829C2.09802 10.7612 2.18027 10.9265 2.29241 11.0673C2.40455 11.2081 2.54391 11.3212 2.70082 11.3986L3.33382 11.7094L3.27982 12.4545C3.26682 12.6367 3.26682 12.8179 3.28282 13.0805C3.28282 15.9857 6.63882 18.4727 10.9908 18.4727C15.3618 18.4727 18.7898 15.9685 18.7928 12.9991C18.8058 12.8178 18.8058 12.6357 18.7928 12.4545L18.7408 11.7341L19.3448 11.4125ZM5.95682 11.5829C5.95682 11.1565 6.11486 10.7475 6.39616 10.4459C6.67747 10.1443 7.059 9.97493 7.45682 9.97493C7.85465 9.97493 8.23618 10.1443 8.51748 10.4459C8.79879 10.7475 8.95682 11.1565 8.95682 11.5829C8.95682 12.0094 8.79879 12.4184 8.51748 12.72C8.23618 13.0215 7.85465 13.1909 7.45682 13.1909C7.059 13.1909 6.67747 13.0215 6.39616 12.72C6.11486 12.4184 5.95682 12.0094 5.95682 11.5829ZM12.9568 11.5829C12.9568 11.1565 13.1149 10.7475 13.3962 10.4459C13.6775 10.1443 14.059 9.97493 14.4568 9.97493C14.8546 9.97493 15.2362 10.1443 15.5175 10.4459C15.7988 10.7475 15.9568 11.1565 15.9568 11.5829C15.9568 12.0094 15.7988 12.4184 15.5175 12.72C15.2362 13.0215 14.8546 13.1909 14.4568 13.1909C14.059 13.1909 13.6775 13.0215 13.3962 12.72C13.1149 12.4184 12.9568 12.0094 12.9568 11.5829ZM10.9728 17.0534C9.57582 17.0534 8.20582 16.6567 7.09082 15.7563C7.02347 15.6691 6.98888 15.5581 6.99382 15.445C6.99876 15.332 7.04288 15.225 7.11754 15.1449C7.1922 15.0649 7.29204 15.0176 7.39751 15.0123C7.50299 15.007 7.60651 15.0441 7.68782 15.1163C8.63282 15.8592 9.81082 16.1776 10.9568 16.1776C12.1028 16.1776 13.2868 15.8828 14.2408 15.1495C14.296 15.0918 14.3644 15.0507 14.439 15.0303C14.5137 15.0099 14.5921 15.011 14.6663 15.0334C14.7405 15.0557 14.8079 15.0987 14.8617 15.1578C14.9155 15.217 14.9538 15.2903 14.9728 15.3703C14.989 15.4506 14.9867 15.5339 14.9659 15.6129C14.9452 15.692 14.9067 15.7644 14.8538 15.8238C14.1698 16.6782 12.3698 17.0534 10.9728 17.0534Z" fill="white"/>
</svg>
