<svg width="20" height="20" viewBox="0 0 20 20" fill="none" xmlns="http://www.w3.org/2000/svg">
<path fill-rule="evenodd" clip-rule="evenodd" d="M8.98334 0.0237595C8.87547 0.0421725 8.5401 0.0966283 8.23808 0.144737C6.89136 0.359189 5.1902 1.08873 4.0509 1.9402C2.03642 3.44567 0.688365 5.56144 0.146443 8.06834C-0.0488145 8.97152 -0.0488145 11.0465 0.146443 11.9496C1.02263 16.0025 4.00234 18.9786 8.06016 19.8537C8.96443 20.0488 11.0419 20.0488 11.9462 19.8537C15.0001 19.1951 17.5228 17.3004 18.9053 14.6271C19.7042 13.082 20 11.8345 20 10.009C20 8.1796 19.7045 6.93653 18.8998 5.38044C17.5269 2.72537 14.9807 0.812931 11.9644 0.171299C11.404 0.0520452 9.39888 -0.0471499 8.98334 0.0237595ZM9.37558 3.23145V5.22946H8.76164C8.1492 5.22946 6.46169 5.08513 6.40262 5.02778C6.34857 4.9752 6.86931 3.80218 7.19228 3.24885C7.60916 2.53474 8.32759 1.7842 8.88175 1.48395C9.13176 1.34847 9.34522 1.23666 9.35597 1.23557C9.36672 1.23439 9.37558 2.13255 9.37558 3.23145ZM12.0405 2.22289C12.2954 2.49509 12.6435 2.95675 12.814 3.24885C13.1703 3.85914 13.6555 4.97685 13.5918 5.04047C13.5224 5.10981 12.144 5.22499 11.3564 5.22734L10.6308 5.22946V3.22683V1.22429L11.1039 1.47611C11.3802 1.62326 11.7699 1.93393 12.0405 2.22289ZM6.42733 2.26066C6.08373 2.76948 5.53208 3.86039 5.33212 4.42634C5.20817 4.77728 5.15741 4.83769 4.98655 4.83753C4.73999 4.83738 3.27198 4.48745 3.19495 4.41043C3.09846 4.31414 4.4713 3.05845 5.17138 2.60259C5.77033 2.21271 6.63373 1.76727 6.69084 1.81875C6.70277 1.82956 6.58415 2.02834 6.42733 2.26066ZM14.8483 2.61129C15.223 2.85528 15.8484 3.37327 16.2378 3.76237L16.9458 4.46982L16.2152 4.64902C15.8133 4.74759 15.3418 4.83918 15.1673 4.85258L14.8501 4.87687L14.636 4.3284C14.3573 3.61452 13.9352 2.78852 13.581 2.26379C13.4253 2.0332 13.298 1.83089 13.298 1.81421C13.298 1.7317 14.2456 2.2189 14.8483 2.61129ZM3.4219 5.72441C3.87031 5.83176 4.36963 5.94216 4.53139 5.96981C4.69323 5.99747 4.82557 6.03265 4.82557 6.04793C4.82557 6.06321 4.75576 6.48365 4.6704 6.98214C4.58513 7.48062 4.49162 8.22458 4.46275 8.63531L4.41019 9.38217H2.77282H1.13552L1.17192 9.20587C1.192 9.10887 1.23068 8.85838 1.25798 8.64902C1.41637 7.43314 2.22682 5.38381 2.50688 5.49116C2.56179 5.51215 2.97357 5.61715 3.4219 5.72441ZM17.952 6.11093C18.3979 7.01685 18.6055 7.7395 18.83 9.1667L18.8639 9.38217H17.2297H15.5954L15.5414 8.61823C15.5117 8.19802 15.4204 7.46644 15.3387 6.9924C15.2569 6.51836 15.2144 6.10983 15.2442 6.08452C15.274 6.05921 15.6968 5.96065 16.1837 5.86553C16.6707 5.77033 17.1472 5.66103 17.2428 5.62263C17.5948 5.48113 17.6662 5.53033 17.952 6.11093ZM8.25769 6.37905L9.37558 6.42873V7.90545V9.38217H7.49282H5.61006L5.61163 9.04917C5.61343 8.64863 5.79951 7.23561 5.9277 6.64874L6.01987 6.22681L6.57984 6.27813C6.88783 6.30634 7.64281 6.35179 8.25769 6.37905ZM14.0809 6.6594C14.2071 7.23694 14.3929 8.65168 14.3947 9.04917L14.3963 9.38217H12.5135H10.6308V7.89346V6.40475L11.4741 6.39449C11.9379 6.38885 12.5822 6.35931 12.9058 6.32883C14.0712 6.21898 13.979 6.19304 14.0809 6.6594ZM4.46526 11.3565C4.49523 11.753 4.58858 12.4792 4.67268 12.9706C4.75677 13.4619 4.82557 13.874 4.82557 13.8864C4.82557 13.8987 4.66468 13.9329 4.46808 13.9624C4.27141 13.9918 3.70572 14.1146 3.21087 14.2351L2.31115 14.4543L2.0434 13.8967C1.60276 12.9785 1.39762 12.2583 1.17631 10.8513L1.14242 10.6358H2.77666H4.41082L4.46526 11.3565ZM9.37558 12.0731V13.5105L8.29692 13.5603C7.70369 13.5878 6.95003 13.6332 6.6222 13.6614L6.02623 13.7126L5.93938 13.3681C5.83332 12.9475 5.61006 11.2782 5.61006 10.9061V10.6358H7.49282H9.37558V12.0731ZM14.3947 10.9296C14.3927 11.3087 14.1908 12.825 14.0712 13.3589C13.9807 13.7628 13.973 13.7713 13.7364 13.7319C13.3229 13.6631 11.6364 13.5365 11.1211 13.5357L10.6308 13.5349V12.0853V10.6358H12.5135H14.3963L14.3947 10.9296ZM18.8176 10.9296C18.7354 11.5286 18.6159 12.1002 18.4612 12.6338C18.2915 13.2192 17.7243 14.4755 17.6301 14.4745C17.5989 14.4742 17.1498 14.3686 16.6321 14.2401C16.1143 14.1115 15.6201 14.0054 15.5338 14.0044C15.1826 14.0004 15.1691 13.9317 15.3326 12.9771C15.4173 12.4822 15.5111 11.753 15.5411 11.3565L15.5955 10.6358H17.2268H18.8579L18.8176 10.9296ZM9.37558 16.7062V18.7023L9.16071 18.6207C8.54277 18.386 7.71153 17.5733 7.18632 16.6904C6.85958 16.1411 6.347 14.9666 6.40756 14.9061C6.46483 14.8489 7.87792 14.7322 8.64993 14.7208L9.37558 14.7102V16.7062ZM12.4716 14.7982C13.0772 14.8465 13.5853 14.8974 13.6007 14.9111C13.6163 14.9249 13.5369 15.177 13.4243 15.4712C12.8764 16.9032 11.752 18.2765 10.8456 18.6207L10.6308 18.7023V16.7062V14.7102H11.0007C11.2043 14.7102 11.8662 14.7497 12.4716 14.7982ZM5.334 15.536C5.58103 16.1918 6.12476 17.2532 6.48648 17.7855C6.65483 18.0334 6.7747 18.2361 6.75274 18.2361C6.60831 18.2361 5.73158 17.78 5.15804 17.4067C4.44683 16.9436 3.04739 15.6416 3.12544 15.5155C3.17549 15.4345 4.93477 15.0218 5.08995 15.0546C5.12744 15.0625 5.23727 15.2792 5.334 15.536ZM16.2084 15.343C16.819 15.4862 16.8964 15.5231 16.8333 15.6409C16.6812 15.9248 15.4587 17.0093 14.8277 17.4201C14.2708 17.7826 13.3961 18.2361 13.2536 18.2361C13.2316 18.2361 13.3568 18.0257 13.5315 17.7686C13.8907 17.2403 14.5881 15.8528 14.7267 15.3907L14.8185 15.0848L15.165 15.1322C15.3555 15.1583 15.8251 15.2532 16.2084 15.343Z" fill="white"/>
</svg>
