<svg width="22" height="16" viewBox="0 0 22 16" fill="none" xmlns="http://www.w3.org/2000/svg">
<path fill-rule="evenodd" clip-rule="evenodd" d="M6.79425 0.0180373C4.09154 0.119632 2.83438 0.233995 2.32511 0.424508C1.62117 0.687932 0.945909 1.31443 0.599396 2.02559C0.0842994 3.08271 0.000747989 3.91101 7.77407e-06 7.96442C-0.00073244 11.7117 0.050804 12.4241 0.405274 13.5718C0.714129 14.5719 1.49487 15.3258 2.54412 15.6374C3.36456 15.881 5.94143 15.9965 10.6341 15.9999C15.7163 16.0036 18.0746 15.8872 18.8584 15.5939C19.4896 15.3578 20.241 14.6967 20.5328 14.1208C21.0945 13.0124 21.2791 11.0172 21.1971 6.94663C21.1396 4.1005 21.0757 3.43783 20.7599 2.41531C20.5921 1.87227 20.4765 1.69009 19.9932 1.20719C19.2168 0.431448 18.7368 0.25907 17.0293 0.143042C15.666 0.0504222 8.31919 -0.0393293 6.79425 0.0180373ZM16.2782 1.35783C17.1943 1.40918 18.1088 1.49985 18.3106 1.55935C18.907 1.73524 19.4178 2.30484 19.6462 3.04885C19.9224 3.94802 20.0578 7.26029 19.935 10.1157C19.8221 12.7419 19.6869 13.3511 19.0731 13.9998C18.537 14.5662 17.993 14.6407 13.5117 14.761C10.6741 14.8371 5.30253 14.7363 3.85773 14.5796C2.36943 14.4184 1.86933 14.0693 1.52383 12.9507C1.25735 12.0879 1.11912 8.69455 1.23774 5.92634C1.32869 3.80461 1.39605 3.31606 1.6913 2.63516C2.10536 1.68047 2.61047 1.48107 4.94584 1.35042C8.25719 1.16528 12.8947 1.16824 16.2782 1.35783ZM8.14847 4.64604L7.90457 4.89004V7.7964V10.7028L8.1494 10.9297C8.59732 11.3448 8.83456 11.271 11.3571 9.93062C12.6262 9.25638 13.805 8.57482 13.9767 8.41614C14.3369 8.08323 14.4002 7.60718 14.127 7.28528C14.038 7.18035 13.3197 6.74418 12.5309 6.31606C11.7421 5.88794 10.6301 5.28217 10.0599 4.96989C8.86889 4.31776 8.53366 4.26095 8.14847 4.64604ZM10.9636 6.89093L12.6344 7.80667L11.9581 8.17696C10.8549 8.78106 9.17126 9.67617 9.13814 9.67617C9.1213 9.67617 9.10742 8.84343 9.10742 7.82563C9.10742 6.6511 9.14129 5.9751 9.20013 5.9751C9.25111 5.9751 10.0447 6.38721 10.9636 6.89093Z" fill="white"/>
</svg>
